<svg height="512pt" viewBox="0 0 512 512" width="512pt" xmlns="http://www.w3.org/2000/svg"><path d="m512 256c0 141.386719-114.613281 256-256 256s-256-114.613281-256-256 114.613281-256 256-256 256 114.613281 256 256zm0 0" fill="#015e82"/><path d="m509.273438 218.613281-93.722657-93.722656-204.828125 204.832031 18.6875 18.6875-60.8125 60.8125 102.332032 102.335938c134.433593-7.738282 241.070312-119.1875 241.070312-255.558594 0-12.699219-.941406-25.179688-2.726562-37.386719zm0 0" fill="#014059"/><path d="m356.777344 98.484375c2.335937 31.191406 6.863281 98.761719 6.863281 115.523437 0 108.234376-44.304687 201.203126-107.640625 241.671876l-15.828125-190.214844 15.828125-190.210938c34.738281 0 69.476562 7.738282 100.777344 23.230469zm0 0" fill="#d5011d"/><path d="m256 75.253906v380.425782c-63.335938-40.46875-107.640625-133.4375-107.640625-241.671876 0-16.765624 4.519531-84.332031 6.863281-115.523437 31.300782-15.492187 66.039063-23.230469 100.777344-23.230469zm0 0" fill="#ff0021"/><path d="m404.28125 130.648438c3.238281 29.339843 6.847656 65.945312 6.847656 83.359374 0 108.234376-63.855468 201.203126-155.128906 241.671876 63.332031-40.46875 107.640625-133.4375 107.640625-241.671876 0-16.765624-4.527344-84.332031-6.863281-115.523437 17.042968 8.421875 33.0625 19.144531 47.503906 32.164063zm0 0" fill="#015e82"/><path d="m148.359375 214.007812c0 108.234376 44.304687 201.203126 107.640625 241.671876-91.273438-40.46875-155.128906-133.4375-155.128906-241.671876 0-17.414062 3.609375-54.011718 6.84375-83.359374 14.445312-13.019532 30.464844-23.742188 47.507812-32.164063-2.34375 31.191406-6.863281 98.757813-6.863281 115.523437zm0 0" fill="#007caa"/><path d="m275.015625 456.792969c61.480469-47.441407 100.496094-140.640625 100.496094-242.785157 0-17.335937-4.492188-84.378906-6.898438-116.414062l-23.675781 1.773438c2.304688 30.738281 6.828125 98.136718 6.828125 114.640624 0 97.558594-37.359375 186.945313-95.765625 228.621094l-11.871094 14.164063zm0 0" fill="#eff6f9"/><path d="m256 442.628906c-58.472656-41.640625-95.769531-131-95.769531-228.621094 0-15.75 4.378906-81.984374 6.832031-114.640624l-23.679688-1.777344c-1.875 24.960937-5.195312 73.988281-6.421874 101.140625l5.507812 83.859375c13.140625 73.996094 47.164062 137.664062 94.511719 174.199218h18.304687c0 .003907 2.78125-12.6875.714844-14.160156zm0 0" fill="#fff"/><path d="m140.496094 360.234375-6.695313-22.78125c26.648438-7.832031 50.628907-24.390625 67.519531-46.628906l18.910157 14.363281c-19.9375 26.246094-48.253907 45.796875-79.734375 55.046875zm0 0" fill="#ffb037"/><path d="m416.082031 129.34375-.496093-4.492188-3.359376-3.023437c-41.824218-37.691406-97.304687-58.445313-156.226562-58.445313l-11.871094 11.871094 11.871094 11.871094c51.472656 0 99.929688 17.507812 136.980469 49.390625 4.109375 37.753906 6.277343 64.492187 6.277343 77.492187 0 98.53125-56.054687 187.675782-143.257812 228.621094l-11.871094 13.050782 11.871094 12.9375 4.8125-2.085938c98.523438-43.6875 162.1875-142.808594 162.1875-252.523438 0-14.574218-2.328125-43.0625-6.917969-84.664062zm0 0" fill="#ff9037"/><path d="m255.996094 442.628906c-87.203125-40.941406-143.257813-130.089844-143.257813-228.621094 0-12.996093 2.167969-39.738281 6.277344-77.492187 37.050781-31.882813 85.511719-49.390625 136.984375-49.390625v-23.742188c-58.921875 0-114.40625 20.757813-156.230469 58.445313l-3.359375 3.027344-.496094 4.492187c-4.589843 41.601563-6.917968 70.085938-6.917968 84.660156 0 109.714844 63.664062 208.835938 162.191406 252.523438l4.8125 2.085938s0-25.988282-.003906-25.988282zm0 0" fill="#ffb037"/><path d="m136.796875 198.722656-.265625 11.605469c-.03125 1.398437-.046875 2.632813-.046875 3.679687 0 19.683594 1.445313 39.363282 4.296875 58.488282l1.507812 10.125h61.972657l3.550781-60.152344h48.1875v-23.746094zm0 0" fill="#ffb037"/><path d="m256 198.722656h155.089844v55.40625h-155.089844zm0 0" fill="#ff9037"/><path d="m256 198.722656-35.617188 67.277344 35.617188 67.277344c37.097656 0 67.277344-30.179688 67.277344-67.277344s-30.179688-67.277344-67.277344-67.277344zm0 0" fill="#ff6e37"/><path d="m188.722656 266c0 37.097656 30.179688 67.277344 67.277344 67.277344v-134.554688c-37.097656 0-67.277344 30.179688-67.277344 67.277344zm0 0" fill="#ff9037"/><path d="m256 242.257812-12.570312 23.742188 12.570312 23.742188c13.09375 0 23.742188-10.648438 23.742188-23.742188s-10.648438-23.742188-23.742188-23.742188zm0 0" fill="#d5011d"/><path d="m232.253906 266c0 13.09375 10.652344 23.742188 23.746094 23.742188v-47.488282c-13.09375.003906-23.746094 10.652344-23.746094 23.746094zm0 0" fill="#ff0021"/></svg>