<svg height="512pt" viewBox="0 0 512 512.001" width="512pt" xmlns="http://www.w3.org/2000/svg"><path d="m512 256c0 141.386719-114.613281 256-256 256-141.382812 0-256-114.613281-256-256s114.617188-256 256-256c141.386719 0 256 114.613281 256 256zm0 0" fill="#ffd237"/><path d="m355.105469 184.609375-14.832031-14.832031-214.332032 214.332031 127.863282 127.863281c.734374.007813 1.460937.027344 2.195312.027344 141.386719 0 256-114.613281 256-256 0-21.808594-2.734375-42.980469-7.867188-63.195312l-78.609374-78.609376zm0 0" fill="#ffb037"/><path d="m425.652344 140.515625v-26.3125h-60.183594c-17.753906 0-34.453125-6.921875-47.027344-19.496094l-7.707031-7.707031-7.703125 7.707031c-12.574219 12.574219-29.277344 19.496094-47.03125 19.496094l-43.59375 158.789063 43.59375 185.917968.089844.089844 31.519531-31.515625c36.507813-.894531 70.691406-15.535156 96.589844-41.457031 26.730469-26.753906 41.453125-62.332032 41.453125-100.179688v-27.210937l-3.191406-3.195313c-14.9375-14.933594-23.164063-34.777344-23.164063-55.867187 0-21.089844 8.226563-40.929688 23.164063-55.867188zm0 0"/><path d="m208.972656 94.707031-7.707031-7.707031-7.707031 7.707031c-12.570313 12.574219-29.273438 19.496094-47.023438 19.496094h-60.1875v26.3125l3.191406 3.191406c14.9375 14.9375 23.164063 34.777344 23.164063 55.867188 0 21.089843-8.226563 40.933593-23.164063 55.871093l-3.191406 3.191407v27.210937c0 37.847656 14.722656 73.425782 41.453125 100.179688 25.945313 25.964844 60.199219 40.613281 96.777344 41.460937l31.421875 31.421875v-344.707031c-17.753906 0-34.453125-6.921875-47.027344-19.496094zm0 0" fill="#012231"/><path d="m400.089844 136h-34.621094c-20.109375 0-39.195312-6.6875-54.734375-19.007812-15.535156 12.324218-34.625 19.007812-54.734375 19.007812l-43.59375 136.992188 43.59375 155.089843.089844.09375 22.445312-22.445312h5.519532c66.058593 0 119.800781-53.78125 119.800781-119.882813v-18.332031c-33.746094-36.945313-35-93.132813-3.765625-131.515625zm0 0" fill="#ff9037"/><path d="m201.265625 116.992188c-15.535156 12.324218-34.625 19.007812-54.730469 19.007812h-34.625c31.234375 38.382812 29.980469 94.566406-3.765625 131.515625v18.332031c0 66.101563 53.742188 119.882813 119.800781 119.882813h5.703126l22.351562 22.351562v-292.082031c-20.109375 0-39.199219-6.683594-54.734375-19.007812zm0 0" fill="#ffb037"/><path d="m129.941406 268.304688v17.542968c0 41.757813 26.210938 77.5 63.03125 91.625l21.796875-54.585937-21.796875-54.582031zm0 0" fill="#014059"/><path d="m319.03125 377.472656c36.816406-14.125 63.027344-49.867187 63.027344-91.625v-17.542968h-63.027344l-21.796875 57.8125zm0 0" fill="#aa011a"/><path d="m256 268.304688-21.796875 57.8125 21.796875 57.816406h28.054688c12.316406 0 24.105468-2.292969 34.976562-6.460938v-109.167968zm0 0" fill="#014059"/><path d="m192.972656 268.304688v109.167968c10.867188 4.167969 22.65625 6.460938 34.972656 6.460938h28.054688v-115.628906zm0 0" fill="#aa011a"/><path d="m360.308594 232.683594c-5.671875-20.367188-6.007813-41.992188-.96875-62.527344l2.882812-11.75-11.984375-1.644531c-2.371093-.328125-4.71875-.730469-7.050781-1.207031l-14.53125 46.597656 14.53125 44.355468h20.972656zm0 0" fill="#ffd237"/><path d="m321.390625 148.648438-14.53125 53.503906 14.53125 44.355468h21.796875v-90.953124c-7.507812-1.535157-14.796875-3.84375-21.796875-6.90625zm0 0" fill="#ff0021"/><path d="m315.675781 145.949219-4.941406-2.511719-4.9375 2.511719c-2.046875 1.039062-4.113281 2.007812-6.203125 2.910156l-14.53125 53.292969 14.53125 44.355468h21.796875v-97.859374c-1.925781-.84375-3.835937-1.742188-5.714844-2.699219zm0 0" fill="#ffd237"/><path d="m277.796875 155.664062-14.53125 46.488282 14.53125 44.355468h21.796875v-97.644531c-7.035156 3.042969-14.3125 5.3125-21.796875 6.800781zm0 0" fill="#ff0021"/><path d="m256 157.796875-14.53125 44.355469 14.53125 44.355468h21.796875v-90.84375c-7.09375 1.414063-14.371094 2.132813-21.796875 2.132813zm0 0" fill="#ffd237"/><path d="m256 297.058594-18.164062 29.058594 18.164062 29.066406c16.050781 0 29.0625-13.011719 29.0625-29.0625 0-16.050782-13.011719-29.0625-29.0625-29.0625zm0 0" fill="#ff9037"/><path d="m226.9375 326.117188c0 16.054687 13.011719 29.0625 29.0625 29.0625v-58.125c-16.050781.003906-29.0625 13.015624-29.0625 29.0625zm0 0" fill="#ffb037"/><path d="m147.839844 246.507812 3.851562-13.824218c5.675782-20.367188 6.011719-41.992188.972656-62.527344l-2.882812-11.75 11.980469-1.644531c7.589843-1.042969 14.996093-2.863281 22.132812-5.4375l18.027344 38.804687 18.027344-38.339844c11.488281 3.984376 23.558593 6.007813 36.054687 6.007813v23.324219l-10.898437 18.027344 10.894531 18.027343v29.332031h-36.054688l-18.027343-33.859374-18.027344 33.859374zm0 0" fill="#fff"/><path d="m183.894531 246.507812v-29.332031h-28.945312c1.71875-11.945312 1.671875-24.109375-.128907-36.054687h29.074219v-29.796875c4.242188-1.527344 8.394531-3.320313 12.433594-5.375l4.9375-2.511719 4.941406 2.511719c4.472657 2.277343 9.058594 4.214843 13.742188 5.839843v29.332032h36.050781v36.054687h-36.054688v29.332031zm0 0" fill="#ff0021"/></svg>