<svg height="512pt" viewBox="0 0 512 512" width="512pt" xmlns="http://www.w3.org/2000/svg" xmlns:xlink="http://www.w3.org/1999/xlink"><linearGradient id="a"><stop offset="0" stop-color="#ffd237"/><stop offset="1" stop-color="#ffb037"/></linearGradient><linearGradient id="b" gradientUnits="userSpaceOnUse" x1="74.9807" x2="437.0193" xlink:href="#a" y1="74.9807" y2="437.0193"/><linearGradient id="c" gradientUnits="userSpaceOnUse" x1="113.5816" x2="398.4184" y1="86.9711" y2="371.8078"><stop offset="0" stop-color="#014059"/><stop offset="1" stop-color="#012231"/></linearGradient><linearGradient id="d"><stop offset="0" stop-color="#ffb037"/><stop offset="1" stop-color="#ff9037"/></linearGradient><linearGradient id="e" gradientUnits="userSpaceOnUse" x1="133.152" x2="378.848" xlink:href="#d" y1="114.7603" y2="360.4562"/><linearGradient id="f"><stop offset="0" stop-color="#015e82"/><stop offset="1" stop-color="#014059"/></linearGradient><linearGradient id="g" gradientUnits="userSpaceOnUse" x1="131.1682" x2="217.2661" xlink:href="#f" y1="267.0781" y2="353.176"/><linearGradient id="h"><stop offset="0" stop-color="#ff0021"/><stop offset="1" stop-color="#aa011a"/></linearGradient><linearGradient id="i" gradientUnits="userSpaceOnUse" x1="307.4947" x2="368.071" xlink:href="#h" y1="279.8389" y2="340.4152"/><linearGradient id="j" gradientUnits="userSpaceOnUse" x1="242.8503" x2="328.9482" xlink:href="#f" y1="281.4543" y2="367.5522"/><linearGradient id="k" gradientUnits="userSpaceOnUse" x1="181.4365" x2="270.7651" xlink:href="#h" y1="279.8389" y2="369.1675"/><linearGradient id="l" gradientUnits="userSpaceOnUse" x1="324.4944" x2="380.4577" xlink:href="#a" y1="174.2477" y2="230.211"/><linearGradient id="m"><stop offset="0" stop-color="#ff4b37"/><stop offset="1" stop-color="#d5011d"/></linearGradient><linearGradient id="n" gradientUnits="userSpaceOnUse" x1="300.6485" x2="360.4767" xlink:href="#m" y1="169.3903" y2="229.2186"/><linearGradient id="o" gradientUnits="userSpaceOnUse" x1="280.6851" x2="340.4065" xlink:href="#a" y1="167.7705" y2="227.492"/><linearGradient id="p" gradientUnits="userSpaceOnUse" x1="262.2366" x2="318.5563" xlink:href="#m" y1="171.2257" y2="227.5454"/><linearGradient id="q" gradientUnits="userSpaceOnUse" x1="239.8054" x2="295.0586" xlink:href="#a" y1="173.9931" y2="229.2462"/><linearGradient id="r" gradientUnits="userSpaceOnUse" x1="235.4498" x2="276.5502" xlink:href="#d" y1="305.569" y2="346.6695"/><linearGradient id="s" gradientUnits="userSpaceOnUse" x1="170.6759" x2="239.654" xlink:href="#m" y1="164.544" y2="233.5222"/><path d="m512 256c0 141.386719-114.613281 256-256 256s-256-114.613281-256-256 114.613281-256 256-256 256 114.613281 256 256zm0 0" fill="url(#b)"/><path d="m425.652344 140.515625v-26.3125h-60.183594c-17.753906 0-34.453125-6.921875-47.027344-19.496094l-7.707031-7.707031-7.707031 7.707031c-12.574219 12.574219-29.273438 19.496094-47.027344 19.496094v.003906-.003906c-17.753906 0-34.453125-6.921875-47.027344-19.496094l-7.707031-7.707031-7.707031 7.707031c-12.570313 12.574219-29.273438 19.496094-47.027344 19.496094h-60.183594v26.3125l3.191406 3.191406c14.9375 14.9375 23.164063 34.777344 23.164063 55.867188 0 21.089843-8.226563 40.933593-23.164063 55.871093l-3.191406 3.191407v27.210937c0 37.847656 14.722656 73.425782 41.453125 100.179688 25.941407 25.964844 60.199219 40.613281 96.777344 41.460937l31.511719 31.511719 31.519531-31.515625c36.507813-.894531 70.691406-15.535156 96.589844-41.457031 26.730469-26.753906 41.453125-62.332032 41.453125-100.179688v-27.210937l-3.191406-3.195313c-14.9375-14.933594-23.164063-34.777344-23.164063-55.867187 0-21.089844 8.226563-40.929688 23.164063-55.867188zm0 0" fill="url(#c)"/><path d="m400.089844 136h-34.621094c-20.109375 0-39.199219-6.6875-54.734375-19.011719-15.539063 12.324219-34.625 19.011719-54.734375 19.011719v.003906-.003906c-20.109375 0-39.199219-6.6875-54.734375-19.011719-15.535156 12.324219-34.625 19.011719-54.734375 19.011719h-34.621094c31.234375 38.382812 29.980469 94.566406-3.765625 131.515625v18.332031c0 66.101563 53.742188 119.882813 119.800781 119.882813h5.703126l22.351562 22.351562.089844.09375 22.445312-22.445312h5.519532c66.058593 0 119.800781-53.78125 119.800781-119.882813v-18.332031c-33.746094-36.945313-35-93.132813-3.765625-131.515625zm0 0" fill="url(#e)"/><path d="m129.941406 268.304688v17.542968c0 41.757813 26.210938 77.5 63.03125 91.625l21.796875-54.585937-21.796875-54.582031zm0 0" fill="url(#g)"/><path d="m319.027344 377.472656c36.820312-14.125 63.03125-49.867187 63.03125-91.625v-17.542968h-63.03125l-21.796875 57.8125zm0 0" fill="url(#i)"/><path d="m256 268.304688-21.796875 57.8125 21.796875 57.816406h28.054688c12.316406 0 24.105468-2.292969 34.972656-6.460938v-109.167968zm0 0" fill="url(#j)"/><path d="m192.972656 268.304688v109.167968c10.867188 4.167969 22.65625 6.460938 34.972656 6.460938h28.054688v-115.628906zm0 0" fill="url(#k)"/><path d="m360.308594 232.683594c-5.671875-20.367188-6.007813-41.992188-.96875-62.527344l2.882812-11.75-11.984375-1.644531c-2.371093-.328125-4.71875-.730469-7.050781-1.207031l-14.53125 46.597656 14.53125 44.355468h20.972656zm0 0" fill="url(#l)"/><path d="m321.390625 148.648438-14.53125 53.503906 14.53125 44.355468h21.796875v-90.953124c-7.507812-1.535157-14.796875-3.84375-21.796875-6.90625zm0 0" fill="url(#n)"/><path d="m315.675781 145.949219-4.941406-2.511719-4.9375 2.511719c-2.046875 1.039062-4.113281 2.007812-6.203125 2.910156l-14.53125 53.292969 14.53125 44.355468h21.796875v-97.859374c-1.925781-.84375-3.835937-1.742188-5.714844-2.699219zm0 0" fill="url(#o)"/><path d="m277.796875 155.664062-14.53125 46.488282 14.53125 44.355468h21.796875v-97.644531c-7.035156 3.042969-14.3125 5.3125-21.796875 6.800781zm0 0" fill="url(#p)"/><path d="m256 157.796875-14.53125 44.355469 14.53125 44.355468h21.796875v-90.84375c-7.09375 1.414063-14.371094 2.132813-21.796875 2.132813zm0 0" fill="url(#q)"/><path d="m285.0625 326.117188c0 16.050781-13.011719 29.0625-29.0625 29.0625s-29.0625-13.011719-29.0625-29.0625c0-16.046876 13.011719-29.058594 29.0625-29.058594s29.0625 13.011718 29.0625 29.058594zm0 0" fill="url(#r)"/><path d="m147.839844 246.507812 3.851562-13.824218c5.671875-20.367188 6.007813-41.992188.96875-62.527344l-2.878906-11.75 11.980469-1.644531c7.589843-1.042969 14.996093-2.863281 22.132812-5.4375l18.027344 38.804687 18.027344-38.339844c11.488281 3.984376 23.558593 6.007813 36.054687 6.007813v23.324219l-10.898437 18.027344 10.894531 18.027343v29.332031h-36.054688l-18.027343-33.859374-18.027344 33.859374zm0 0" fill="#fff"/><path d="m183.894531 246.507812v-29.332031h-28.945312c1.714843-11.945312 1.671875-24.109375-.128907-36.054687h29.074219v-29.796875c4.242188-1.527344 8.390625-3.320313 12.429688-5.375l4.941406-2.511719 4.941406 2.511719c4.472657 2.277343 9.058594 4.214843 13.738281 5.839843v29.332032h36.054688v36.054687h-36.054688v29.332031zm0 0" fill="url(#s)"/></svg>