<?xml version="1.0" encoding="iso-8859-1"?>
<!-- Generator: Adobe Illustrator 19.0.0, SVG Export Plug-In . SVG Version: 6.00 Build 0)  -->
<svg version="1.1" id="Capa_1" xmlns="http://www.w3.org/2000/svg" xmlns:xlink="http://www.w3.org/1999/xlink" x="0px" y="0px"
	 viewBox="0 0 512 512" style="enable-background:new 0 0 512 512;" xml:space="preserve">
<path style="fill:#1B3466;" d="M512,256c0,54.972-17.335,105.911-46.832,147.634c-25.412,35.934-59.841,65.034-100.007,83.989
	c-25.36,11.975-53.008,19.905-82.108,22.967c-6.99,0.731-14.064,1.181-21.211,1.337C259.897,511.979,257.954,512,256,512
	c-1.954,0-3.897-0.021-5.841-0.073c-7.147-0.157-14.232-0.606-21.222-1.337c-29.09-3.062-56.727-10.982-82.077-22.956
	c-40.187-18.965-74.637-48.076-100.049-84.031C17.324,361.89,0,310.962,0,256c0-55.505,17.659-106.883,47.679-148.825
	c2.8-3.908,5.705-7.732,8.714-11.463c9.989-12.434,21.117-23.907,33.238-34.273c4.88-4.19,9.937-8.192,15.13-12.006
	C147.132,18.348,199.419,0,256,0s108.868,18.348,151.239,49.434c5.193,3.814,10.25,7.816,15.13,12.006
	c12.121,10.355,23.249,21.828,33.238,34.262c3.009,3.73,5.914,7.555,8.704,11.463C494.331,149.107,512,200.495,512,256z"/>
<path style="fill:#232528;" d="M482.283,300.962c1.808,16.771,3.689,60.082-17.115,102.672
	c-25.412,35.934-59.841,65.034-100.007,83.989c-20.919,7.022-44.44,11.494-70.489,13.385l-11.619,9.582
	C274.16,511.519,265.143,512,256,512c-9.143,0-18.171-0.481-27.063-1.411l-11.619-9.582c-26.039-1.891-49.549-6.363-70.457-13.375
	c-40.187-18.965-74.637-48.076-100.049-84.031c-20.793-42.58-18.913-85.88-17.105-102.64L1.797,273.053l11.766-8.589
	c0.282-0.219,33.562-25.987,43.133-83.978c4.859-29.403-1.526-55.087-9.017-73.31c-7.252-17.617-15.538-28.233-15.705-28.442
	l-6.05-7.534l5.789-7.753l17.784-23.719l8.432,2.685c14.744,4.681,29.424,7.064,43.656,7.064c1.066,0,2.132-0.01,3.176-0.042
	c40.72-1.034,65.714-21.629,65.964-21.838l7.774-6.625l8.056,6.322c19.686,15.6,44.335,24.189,69.444,24.189
	c25.098,0,49.758-8.589,69.423-24.179l8.087-6.405l7.805,6.75c0.219,0.178,25.224,20.752,65.923,21.786
	c1.045,0.031,2.1,0.042,3.166,0.042c14.231,0,28.912-2.382,43.656-7.064l8.432-2.685l23.615,31.483l-6.123,7.555
	c-0.157,0.199-8.432,10.804-15.673,28.4c-7.492,18.213-13.876,43.917-9.017,73.32c9.644,58.431,42.82,83.749,43.154,83.999
	l11.745,8.568L482.283,300.962z"/>
<path style="fill:#FCBD00;" d="M469.117,296.5c0,0,31.462,179.284-179.284,192.345l-27.993,23.082
	C259.897,511.979,257.954,512,256,512s-3.897-0.021-5.841-0.073l-28.003-23.082C11.41,475.784,42.883,296.5,42.883,296.5
	l-21.974-21.964c0,0,37.407-27.314,48.086-92.014c5.987-36.216-3.281-66.853-12.601-86.81
	c-7.335-15.705-14.702-24.795-14.702-24.795l12.466-16.624c12.622,4.012,24.482,6.238,35.474,7.147
	c55.662,4.618,89.192-24.357,89.192-24.357c22.612,17.91,49.883,26.864,77.176,26.864c27.272,0,54.565-8.955,77.166-26.864
	c0,0,33.541,28.975,89.203,24.357c10.992-0.909,22.841-3.135,35.464-7.147l12.466,16.624c0,0-7.367,9.091-14.691,24.785
	c-9.331,19.958-18.599,50.604-12.612,86.821c10.689,64.7,48.086,92.014,48.086,92.014L469.117,296.5z"/>
<path style="fill:#FFFFFF;" d="M425.419,185.423c2.921,17.675,7.694,32.885,13.25,45.779H73.321
	c5.557-12.894,10.33-28.104,13.25-45.779c0.276-1.692,0.526-3.366,0.748-5.041c2.725-20.499,1.193-39.261-2.369-55.574
	c-4.515-20.774-12.307-37.567-18.745-48.903c11.888,2.556,23.731,3.847,35.378,3.847c14.978,0,28.326-2.119,39.84-5.209
	c16.234-4.354,28.833-10.659,37.204-15.716c5.877,3.811,12.022,7.177,18.37,10.071c18.424,8.397,38.602,12.859,59.002,12.859
	c6.073,0,12.12-0.392,18.103-1.166c6.323-0.819,12.564-2.066,18.699-3.722c6.892-1.843,13.651-4.22,20.186-7.079
	c6.465-2.822,12.715-6.126,18.699-9.893c0.57-0.347,1.122-0.703,1.683-1.069c4.809,2.903,11.006,6.215,18.495,9.341
	c5.539,2.315,11.79,4.523,18.699,6.376c6.207,1.666,12.947,3.046,20.186,3.972c5.913,0.748,12.146,1.193,18.699,1.229
	c0.311,0.009,0.632,0.009,0.953,0.009c11.647,0,23.5-1.291,35.388-3.847C433.878,96.876,417.343,136.501,425.419,185.423z"/>
<path style="fill:#1B3466;" d="M423.345,413.597c-6.963,8.78-15.111,16.58-24.426,23.384c-15.921,11.647-35.254,20.391-57.88,26.206
	c-15.832,4.07-33.277,6.705-52.306,7.881l-3.793,0.232l-1.977,0.124h-53.936l-1.968-0.124l-3.802-0.232
	c-19.029-1.176-36.473-3.811-52.297-7.881c-22.636-5.815-41.959-14.56-57.88-26.206c-9.314-6.803-17.462-14.604-24.426-23.384
	C49.91,364.737,60.319,300.178,60.426,299.528h391.137l0.009,0.053C451.679,300.178,462.088,364.737,423.345,413.597z"/>
<path style="fill:#DE0029;" d="M255.996,124.81v55.574h-58.999v50.819h-55.574v-50.819H87.318
	c2.725-20.499,1.193-39.261-2.369-55.574h56.474V74.543c16.234-4.354,28.833-10.659,37.204-15.716
	c5.877,3.811,12.022,7.177,18.37,10.071v55.912C196.997,124.81,255.996,124.81,255.996,124.81z"/>
<g>
	<path style="fill:#232528;" d="M171.773,241.172c0-2.038,2.112-3.094,4.301-3.094h26.332c2.112,0,3.018,2.188,3.018,4.226
		c0,2.338-1.055,4.376-3.018,4.376h-20.825v15.09h11.545c1.962,0,3.018,1.886,3.018,3.924c0,1.736-0.905,3.772-3.018,3.772h-11.545
		v20.673c0,2.038-2.49,3.094-4.904,3.094c-2.49,0-4.905-1.056-4.905-3.094V241.172z"/>
	<path style="fill:#232528;" d="M252.201,246.68c-5.056,0-7.922,2.792-7.922,8.677v21.05c0,5.885,2.867,8.677,8.073,8.677
		c6.866,0,7.47-4.905,7.696-8.073c0.152-2.339,2.263-3.094,4.828-3.094c3.396,0,4.98,0.981,4.98,4.828
		c0,9.129-7.47,14.939-18.033,14.939c-9.508,0-17.354-4.678-17.354-17.278v-21.051c0-12.6,7.922-17.278,17.429-17.278
		c10.489,0,17.958,5.584,17.958,14.336c0,3.924-1.584,4.828-4.905,4.828c-2.791,0-4.828-0.83-4.905-3.093
		C259.896,251.811,259.368,246.68,252.201,246.68z"/>
	<path style="fill:#232528;" d="M301.389,241.172c0-2.038,2.112-3.094,4.301-3.094h14.562c7.847,0,15.166,2.565,15.166,13.28
		c0,6.187-2.414,10.262-6.414,11.996c4.603,1.811,7.772,4.753,7.772,12.298v1.585c0,11.77-6.565,15.995-15.09,15.995H305.69
		c-2.64,0-4.301-1.434-4.301-3.018V241.172z M311.123,259.507h8.45c4.075,0,6.036-2.64,6.036-6.489c0-3.924-2.263-6.338-6.112-6.338
		h-8.375V259.507z M319.648,284.631c4.603,0,7.318-2.49,7.318-8.224V275.2c0-5.885-2.716-7.998-7.318-7.998h-8.525v17.429H319.648z"
		/>
</g>
<path style="fill:#FEE300;" d="M425.419,185.423c2.921,17.675,7.694,32.885,13.25,45.779h-182.67V81.756
	c6.073,0,12.12-0.392,18.103-1.166c6.323-0.819,12.564-2.066,18.699-3.722c6.892-1.843,13.651-4.22,20.186-7.079
	c6.465-2.822,12.715-6.126,18.699-9.893c0.57-0.347,1.122-0.703,1.683-1.069c4.809,2.903,11.006,6.215,18.495,9.341
	c5.539,2.315,11.79,4.523,18.699,6.376c6.207,1.666,12.947,3.046,20.186,3.972c5.913,0.748,12.146,1.193,18.699,1.229
	c0.311,0.009,0.632,0.009,0.953,0.009c11.647,0,23.5-1.291,35.388-3.847C433.878,96.876,417.343,136.501,425.419,185.423z"/>
<g>
	<path style="fill:#DE0029;" d="M292.802,76.867v154.336h-18.699V80.59C280.424,79.771,286.667,78.523,292.802,76.867z"/>
	<path style="fill:#DE0029;" d="M331.688,59.895v171.308h-18.699V69.788C319.454,66.965,325.704,63.661,331.688,59.895z"/>
	<path style="fill:#DE0029;" d="M370.567,74.543v156.659h-18.699V68.167C357.405,70.483,363.656,72.69,370.567,74.543z"/>
	<path style="fill:#DE0029;" d="M409.453,79.743v151.459h-18.699V78.515C396.666,79.263,402.899,79.708,409.453,79.743z"/>
</g>
<g>
	<path style="fill:#B50035;" d="M170.96,299.528v163.658c-22.636-5.815-41.959-14.56-57.88-26.206V299.528H170.96z"/>
	<polygon style="fill:#B50035;" points="284.94,299.528 284.94,471.299 282.963,471.423 229.027,471.423 227.058,471.299 
		227.058,299.528 	"/>
	<path style="fill:#B50035;" d="M398.919,299.528V436.98c-15.921,11.647-35.254,20.391-57.88,26.206V299.528H398.919z"/>
</g>
<circle style="fill:#FCBD00;" cx="256" cy="383.77" r="52.537"/>
<g>
	<path style="fill:#232528;" d="M82.34,125.379c3.957,18.125,4.741,36.513,2.33,54.652c-0.215,1.621-0.457,3.244-0.736,4.957
		c-2.638,15.963-7.035,31.157-13.069,45.157l-1.607,3.728H442.73l-1.607-3.728c-6.033-14.001-10.43-29.193-13.069-45.157l0,0
		c-8.065-48.849,9.107-88.484,20.062-107.763l2.947-5.185l-5.831,1.254c-11.688,2.513-23.405,3.787-34.825,3.787
		c-0.295-0.002-0.591,0-0.938-0.008c-6.124-0.033-12.308-0.44-18.376-1.208c-6.71-0.858-13.383-2.171-19.834-3.902
		c-6.261-1.678-12.438-3.785-18.362-6.261c-6.377-2.661-12.481-5.745-18.143-9.163l-1.434-0.865l-1.403,0.912
		c-0.54,0.351-1.07,0.693-1.651,1.048c-5.833,3.672-12.005,6.937-18.346,9.706c-6.441,2.817-13.105,5.154-19.813,6.949
		c-6.025,1.626-12.198,2.855-18.346,3.652c-5.865,0.76-11.841,1.144-17.76,1.144c-19.764,0-39.785-4.363-57.895-12.617
		c-6.226-2.838-12.29-6.163-18.024-9.882l-1.403-0.912l-1.433,0.865c-7.642,4.617-20.18,11.041-36.514,15.423
		c-12.655,3.396-25.826,5.118-39.147,5.118c-11.414,0-23.129-1.274-34.816-3.787L60.94,72.04l2.945,5.184
		C69.788,87.624,77.784,104.42,82.34,125.379z M274.446,83.239c6.386-0.828,12.796-2.103,19.046-3.791
		c6.96-1.862,13.88-4.288,20.565-7.212c6.585-2.876,12.996-6.266,19.02-10.059c0.115-0.07,0.23-0.141,0.344-0.212
		c5.478,3.215,11.329,6.127,17.414,8.667c6.142,2.567,12.547,4.751,19.038,6.491c6.682,1.793,13.593,3.152,20.544,4.042
		c6.285,0.795,12.684,1.215,18.961,1.249c0.335,0.009,0.681,0.009,1.028,0.009c9.958,0,20.129-0.936,30.309-2.788
		c-11.161,21.303-25.613,59.7-17.932,106.223l0,0c2.476,14.986,6.467,29.32,11.875,42.672H258.671V84.384
		C263.941,84.286,269.234,83.914,274.446,83.239z M101.583,82.424c13.791,0,27.428-1.784,40.532-5.3
		c15.956-4.28,28.433-10.448,36.461-15.157c5.538,3.5,11.354,6.647,17.314,9.362c17.986,8.198,37.788,12.687,57.438,13.062v144.141
		H77.331c5.408-13.352,9.399-27.686,11.876-42.678c0.288-1.77,0.536-3.444,0.76-5.118c2.493-18.756,1.683-37.764-2.406-56.493
		c-4.02-18.494-10.636-33.843-16.276-44.607C81.462,81.487,91.63,82.424,101.583,82.424z"/>
	<path style="fill:#232528;" d="M454.199,299.099l-0.365-2.242H58.158l-0.368,2.238c-0.113,0.684-2.734,17.033-0.478,39.655
		c3.737,37.462,17.968,62.282,29.248,76.508c7.084,8.932,15.476,16.967,24.941,23.88c16.125,11.796,35.906,20.758,58.792,26.638
		c15.954,4.103,33.718,6.781,52.8,7.96l5.764,0.355l54.188,0.005l5.849-0.362c19.077-1.179,36.843-3.857,52.807-7.96
		c22.892-5.883,42.672-14.845,58.791-26.637c9.468-6.915,17.859-14.95,24.943-23.881
		C464.781,365.64,454.317,299.761,454.199,299.099z M421.251,411.936c-6.783,8.554-14.827,16.254-23.909,22.887
		c-15.57,11.39-34.737,20.062-56.968,25.776c-15.636,4.02-33.067,6.645-51.804,7.801l-5.692,0.351h-53.767l-5.689-0.351
		c-18.742-1.158-36.17-3.783-51.798-7.802c-22.226-5.709-41.393-14.382-56.969-25.777c-9.078-6.631-17.123-14.331-23.907-22.886
		c-33.746-42.556-29.366-97.998-27.982-109.737h386.473C450.657,313.73,455.3,368.997,421.251,411.936z"/>
</g>
<g>
</g>
<g>
</g>
<g>
</g>
<g>
</g>
<g>
</g>
<g>
</g>
<g>
</g>
<g>
</g>
<g>
</g>
<g>
</g>
<g>
</g>
<g>
</g>
<g>
</g>
<g>
</g>
<g>
</g>
</svg>
