<?xml version="1.0" encoding="iso-8859-1"?>
<!-- Generator: Adobe Illustrator 19.0.0, SVG Export Plug-In . SVG Version: 6.00 Build 0)  -->
<svg version="1.1" id="Capa_1" xmlns="http://www.w3.org/2000/svg" xmlns:xlink="http://www.w3.org/1999/xlink" x="0px" y="0px"
	 viewBox="0 0 512 512" style="enable-background:new 0 0 512 512;" xml:space="preserve">
<path style="fill:#1D2123;" d="M512,256c0,16.384-1.536,32.413-4.483,47.95c-5.935,31.305-17.565,60.594-33.782,86.747
	c-10.543,17-23.019,32.674-37.115,46.717c-3.427,3.417-6.959,6.729-10.574,9.937c-8.84,7.868-18.223,15.13-28.097,21.723
	c-12.298,8.202-25.349,15.381-39.027,21.389c-11.013,4.848-22.423,8.934-34.179,12.184c-4.744,1.337-9.54,2.518-14.388,3.563
	c-6.123,1.327-12.34,2.435-18.631,3.302c-4.89,0.7-9.832,1.243-14.806,1.641C270.023,511.718,263.043,512,256,512
	c-4.023,0-8.025-0.094-12.006-0.282c-5.538-0.251-11.024-0.679-16.468-1.296c-4.336-0.47-8.641-1.055-12.904-1.755
	c-5.413-0.867-10.762-1.923-16.05-3.135c-11.86-2.717-23.406-6.259-34.576-10.574c-6.134-2.351-12.152-4.942-18.045-7.753
	c-4.305-2.048-8.547-4.221-12.727-6.51c-4.336-2.382-8.6-4.88-12.779-7.492c-13.093-8.192-25.391-17.523-36.749-27.878
	c-6.719-6.113-13.103-12.581-19.143-19.362c-9.738-10.971-18.557-22.789-26.321-35.328c-16.217-26.154-27.836-55.453-33.761-86.758
	C1.536,288.371,0,272.363,0,256c0-5.716,0.188-11.379,0.564-17C9.31,105.535,120.33,0,256,0
	c135.69,0,246.732,105.566,255.446,239.062C511.812,244.663,512,250.305,512,256z"/>
<path style="fill:#234EA8;" d="M512,256c0,16.384-1.536,32.413-4.483,47.95c-5.935,31.305-17.565,60.594-33.782,86.747
	C428.607,463.506,347.961,512,256,512c-91.993,0-172.648-48.525-217.767-121.365c-16.217-26.154-27.836-55.453-33.761-86.758
	C1.536,288.371,0,272.363,0,256c0-5.716,0.188-11.379,0.564-17C26.018,121.334,130.717,33.176,256,33.176
	c125.304,0,230.013,88.189,255.446,205.887C511.812,244.663,512,250.305,512,256z"/>
<path style="fill:#FFFFFF;" d="M507.695,294.536c0,3.156-0.063,6.29-0.178,9.415c-5.935,31.305-17.565,60.594-33.782,86.747
	C428.607,463.506,347.961,512,256,512c-91.993,0-172.648-48.525-217.767-121.365c-16.217-26.154-27.836-55.453-33.761-86.758
	c-0.125-3.103-0.178-6.217-0.178-9.341C4.295,155.523,116.987,42.83,256,42.83S507.695,155.523,507.695,294.536z"/>
<path style="fill:#DE0029;" d="M493.965,294.536c0,34.22-7.22,66.759-20.229,96.162C428.607,463.506,347.961,512,256,512
	c-91.993,0-172.648-48.525-217.767-121.365c-12.999-29.393-20.208-61.9-20.208-96.099C18.025,163.098,124.573,56.56,256,56.56
	S493.965,163.098,493.965,294.536z"/>
<path style="fill:#FFFFFF;" d="M411.645,294.535c0,21.011-4.162,41.051-11.715,59.34c-6.758,16.388-16.238,31.366-27.879,44.377
	c-28.5,31.866-69.935,51.926-116.054,51.926c-45.558,0-86.549-19.575-115.008-50.776c-11.651-12.772-21.206-27.489-28.114-43.607
	c-8.059-18.804-12.521-39.51-12.521-61.26c0-22.287,4.682-43.477,13.127-62.642v-0.005c7.008-15.928,16.609-30.46,28.274-43.057
	c28.424-30.716,69.09-49.945,114.243-49.945c45.708,0,86.813,19.699,115.288,51.076c11.651,12.837,21.185,27.619,28.054,43.812
	C407.262,252.443,411.645,272.973,411.645,294.535z"/>
<path style="fill:#234EA8;" d="M398.794,294.535c0,19.276-3.819,37.661-10.749,54.44c-6.2,15.035-14.897,28.777-25.577,40.713
	c-26.147,29.235-64.161,47.639-106.472,47.639c-41.796,0-79.403-17.959-105.513-46.584c-10.689-11.717-19.455-25.22-25.793-40.007
	c-7.394-17.252-11.488-36.248-11.488-56.203c0-20.447,4.296-39.887,12.042-57.469v-0.004c6.43-14.613,15.237-27.946,25.94-39.501
	c26.078-28.18,63.386-45.822,104.811-45.822c41.934,0,79.646,18.074,105.77,46.858c10.689,11.777,19.436,25.339,25.738,40.195
	C394.773,255.918,398.794,274.754,398.794,294.535z"/>
<g>
	<polygon style="fill:#FFFFFF;" points="237.678,232.72 218.719,170.156 199.76,232.72 218.719,295.282 	"/>
	<polygon style="fill:#FFFFFF;" points="199.76,232.72 180.802,170.156 161.843,232.72 180.802,295.282 	"/>
	<path style="fill:#FFFFFF;" d="M161.843,232.719l-18.262,60.264v0.004l-0.698,2.295l-0.693-2.29v-0.004l-16.944-55.923v-0.004
		c6.43-14.613,15.237-27.946,25.94-39.501L161.843,232.719z"/>
	<polygon style="fill:#FFFFFF;" points="275.594,232.72 256.635,170.156 237.678,232.72 256.635,295.282 	"/>
	<polygon style="fill:#FFFFFF;" points="313.511,232.72 294.553,170.156 275.594,232.72 294.553,295.282 	"/>
	<polygon style="fill:#FFFFFF;" points="351.427,232.72 332.47,170.156 313.511,232.72 332.47,295.282 	"/>
	<path style="fill:#FFFFFF;" d="M387.504,238.791l-16.422,54.193v0.004l-0.698,2.295l-0.698-2.295v-0.004l-18.262-60.264
		l10.34-34.123C372.455,210.372,381.202,223.934,387.504,238.791z"/>
	<polygon style="fill:#FFFFFF;" points="237.678,353.255 218.719,290.693 199.76,353.255 218.719,415.818 	"/>
	<polygon style="fill:#FFFFFF;" points="199.76,353.255 180.802,290.693 161.843,353.255 180.802,415.818 	"/>
	<path style="fill:#FFFFFF;" d="M161.843,353.257l-11.359,37.487c-10.689-11.717-19.455-25.22-25.793-40.007l17.5-57.749
		l0.693-2.295l0.698,2.295L161.843,353.257z"/>
	<polygon style="fill:#FFFFFF;" points="275.594,353.255 256.635,290.693 237.678,353.255 256.635,415.818 	"/>
	<polygon style="fill:#FFFFFF;" points="313.511,353.255 294.553,290.693 275.594,353.255 294.553,415.818 	"/>
	<polygon style="fill:#FFFFFF;" points="351.427,353.255 332.47,290.693 313.511,353.255 332.47,415.818 	"/>
	<path style="fill:#FFFFFF;" d="M388.045,348.975c-6.2,15.035-14.897,28.777-25.577,40.713l-11.042-36.431l18.262-60.27l0.698-2.295
		l0.698,2.295L388.045,348.975z"/>
	<path style="fill:#FFFFFF;" d="M54.762,347.927c-2.322-0.707-3.416-2.398-3.841-4.152c-0.403-1.661-0.274-3.551,1.581-5.173
		l13.941-12.663l-35.547,8.612c-2.955,0.716-5.304-2.528-6.176-6.128c-0.872-3.601-0.267-7.559,2.687-8.276l55.859-13.532
		c5.262-1.275,8.074,1.857,8.946,5.457c1.252,5.17,1.235,7.521-4.495,12.917l-14.316,13.536l18.923,5.484
		c7.565,2.175,8.656,4.257,9.909,9.427c0.894,3.693-0.194,7.672-5.458,8.946l-55.859,13.532c-2.955,0.716-5.304-2.528-6.176-6.128
		c-0.872-3.601-0.267-7.56,2.687-8.276l34.624-8.387L54.762,347.927z"/>
	<path style="fill:#FFFFFF;" d="M135.377,405.943c-2.278-3.041-5.517-5.12-8.014-3.239l-34.471,25.924
		c-5.162,3.887-9.644,2.978-13.072-1.567c-3.427-4.556-3.051-9.122,2.111-13.009l34.461-25.924c2.508-1.881,1.285-5.716-0.888-8.6
		c-2.278-3.041-5.517-5.13-8.014-3.239l-34.471,25.924c-9.561,7.189-11.358,15.559-8.464,23.751
		c6.04,6.781,12.424,13.249,19.143,19.362c5.454,1.337,11.546,0.084,18.108-4.848l34.461-25.924
		C138.773,412.662,137.55,408.827,135.377,405.943z"/>
	<path style="fill:#FFFFFF;" d="M186.399,443.204c-3.176-1.902-7.043-2.664-8.652,0.021l-16.614,27.7l1.902-33.092
		c0.47-7.805-0.993-9.237-5.559-11.975c-3.176-1.902-7.084-2.581-8.704,0.104l-28.327,47.24c4.18,2.612,8.443,5.11,12.779,7.492
		l13.845-23.071l-1.118,29.581c5.893,2.811,11.912,5.402,18.045,7.753l26.457-44.105
		C192.073,448.157,189.576,445.116,186.399,443.204z"/>
	<path style="fill:#FFFFFF;" d="M229.439,455.711c-12.278-2.079-23.5,2.194-26.216,18.307l-4.2,24.827
		c-0.408,2.414-0.543,4.639-0.449,6.687c5.287,1.212,10.637,2.267,16.05,3.135c-1.16-1.776-1.515-4.221-0.982-7.356l4.19-24.827
		c1.076-6.363,4.681-8.84,10.021-7.941c7.962,1.348,7.231,7.387,6.907,9.843c-0.376,3.406,2.633,4.974,6.562,5.632
		c4.963,0.846,7.534-0.073,8.485-5.695C251.81,466.432,242.834,457.968,229.439,455.711z M238.362,500.955
		c-3.751-0.627-7.084-0.23-7.952,3.187c-0.491,1.975-1.149,4.566-2.884,6.28c5.444,0.616,10.93,1.045,16.468,1.296
		c0.251-0.825,0.449-1.682,0.596-2.57C245.541,503.526,243.419,501.812,238.362,500.955z"/>
	<path style="fill:#FFFFFF;" d="M314.337,453.663c-0.648-3.062-4.545-3.594-8.171-2.821c-3.626,0.763-6.98,2.842-6.322,5.904
		l4.838,22.768l-18.495,3.929l-4.838-22.768c-0.648-3.072-4.556-3.594-8.171-2.832c-3.626,0.773-6.98,2.842-6.322,5.914
		l10.062,47.397c4.974-0.397,9.916-0.94,14.806-1.641l-3.166-14.921l18.495-3.929l3.302,15.548
		c4.848-1.045,9.644-2.226,14.388-3.563L314.337,453.663z"/>
	<path style="fill:#FFFFFF;" d="M392.443,468.114l-21.358,13.866l-8.798-13.552l11.954-7.753c2.633-1.714,2.09-4.984,0.7-7.137
		c-1.661-2.55-4.514-3.981-6.907-2.435l-11.954,7.764l-8.735-13.469l21.358-13.866c2.393-1.546,2.09-4.974,0.178-7.92
		c-1.661-2.56-4.587-4.618-7.21-2.915l-28.379,18.411c-2.706,1.766-4.587,4.796-2.936,7.346l28.568,44.011
		c13.678-6.008,26.728-13.187,39.027-21.389C396.225,467.56,394.177,466.996,392.443,468.114z"/>
	<path style="fill:#FFFFFF;" d="M455.168,408.503l-49.006-35.349c-2.539-1.829-5.789,0.397-7.952,3.396
		c-2.173,3.009-3.26,6.792-0.721,8.62l26.196,18.902l-32.81-4.692c-7.732-1.128-9.289,0.209-12.403,4.524
		c-2.163,2.999-3.176,6.844-0.637,8.673l48.212,34.774c3.615-3.208,7.147-6.52,10.574-9.937c-0.219-0.616-0.616-1.139-1.191-1.557
		l-26.196-18.902l37.219,4.598c3.751,0.481,6.071-1.599,8.077-4.368C456.694,414.177,457.634,410.279,455.168,408.503z"/>
	<path style="fill:#FFFFFF;" d="M56.444,187.679c-2.465-1.598-2.001-5.014-0.304-7.634l17.319-26.731
		c1.647-2.542,5.042-1.874,7.507-0.277c2.85,1.846,4.467,4.753,2.97,7.065l-12.926,19.951l13.018,8.434l7.537-11.632
		c1.497-2.311,4.58-2.173,7.045-0.576c2.08,1.348,3.846,4.023,2.2,6.565l-7.537,11.632l19.874,12.877
		c2.465,1.598,1.751,5.4-0.195,8.404c-1.947,3.004-5.125,5.21-7.59,3.613L56.444,187.679z"/>
	<path style="fill:#FFFFFF;" d="M118.764,125.81c-4.042,3.322-4.517,7.514-0.554,12.336l15.444,18.791
		c3.963,4.822,8.168,5.168,12.281,1.788c5.673-4.662,2.472-9.28,0.413-12.22c-1.944-2.798-0.115-5.489,2.721-7.82
		c3.829-3.147,6.418-3.611,9.914,0.644c7.751,9.431,4.522,21.115-5.618,29.448c-9.29,7.635-20.75,9.449-30.773-2.748l-15.444-18.791
		c-10.025-12.197-6.025-23.088,3.265-30.722c10.141-8.334,21.995-9.522,29.396-0.516c3.497,4.255,2.54,6.704-1.218,9.794
		c-2.978,2.448-6.03,3.649-8.27,1.213C128.735,125.22,124.792,120.856,118.764,125.81z"/>
	<path style="fill:#FFFFFF;" d="M183.512,79.83c-0.672-2.859,2.03-5.003,5.068-5.717l18.317-4.305
		c8.935-2.1,18.626-0.984,21.608,11.704c1.701,7.238-0.045,12.645-4.298,15.813c5.933,0.774,10.463,3.198,12.563,12.133l0.441,1.877
		c3.319,14.118-3.348,21.059-13.444,23.432l-19.836,4.662c-3.752,0.882-6.538-0.538-7.064-2.771L183.512,79.83z M202.129,96.858
		l9.382-2.205c3.396-0.798,4.358-4.325,3.644-7.362c-0.735-3.127-3.168-5.856-6.563-5.057l-9.382,2.205L202.129,96.858z
		 M217.785,123.35c4.468-1.05,6.56-4.182,5.216-9.9l-0.336-1.429c-1.428-6.076-4.613-7.59-9.08-6.54l-8.935,2.1l4.2,17.87
		L217.785,123.35z"/>
	<path style="fill:#FFFFFF;" d="M246.261,123.995c0.027-0.274,0.155-0.63,0.282-0.986l22.501-54.041
		c1.321-3.098,5.585-4.244,9.788-3.829c4.202,0.416,8.159,2.375,8.848,5.672l11.571,57.411c0.055,0.374,0.111,0.749,0.084,1.023
		c-0.334,3.38-5.785,5.331-9.712,4.942c-2.283-0.226-4.039-1.137-4.397-3.11l-1.977-11.726l-19.274-1.906l-4.235,11.111
		c-0.738,1.864-2.636,2.414-4.92,2.188C250.889,130.356,245.926,127.375,246.261,123.995z M281.317,108.092l-4.247-25.14
		l-9.09,23.822L281.317,108.092z"/>
	<path style="fill:#FFFFFF;" d="M323.83,116.528c0.215-0.507,0.226-1.001,0.165-1.326l-5.165-36.408
		c-0.025-0.41,0.118-0.747,0.227-1.001c1.329-3.125,7.62-3.143,11.253-1.599c2.112,0.898,2.513,2.066,2.76,4.066l2.596,26.738
		l20.972-16.716c1.528-1.246,2.731-1.731,4.843-0.834c3.632,1.544,7.984,6.088,6.655,9.213c-0.108,0.254-0.252,0.591-0.564,0.858
		l-29.723,21.575c-0.277,0.182-0.625,0.532-0.841,1.039l-9.015,21.202c-1.149,2.703-5.019,2.654-8.313,1.253
		c-3.295-1.401-6.013-4.153-4.865-6.857L323.83,116.528z"/>
	<path style="fill:#FFFFFF;" d="M385.788,139.689l10.306,9.129c2.062,1.825,1.464,4.854-0.483,7.052
		c-1.644,1.855-4.553,3.202-6.82,1.193l-10.306-9.129l-10.347,11.68l18.413,16.311c2.062,1.825,1.282,5.059-0.971,7.602
		c-1.948,2.198-5.04,3.751-7.307,1.743l-24.46-21.667c-2.336-2.069-3.698-5.238-1.75-7.437l38.648-43.629
		c1.948-2.198,5.258-1.229,7.593,0.841l24.459,21.667c2.267,2.008,1.099,5.265-0.848,7.464c-2.252,2.542-5.368,3.706-7.429,1.88
		l-18.413-16.311L385.788,139.689z"/>
	<path style="fill:#FFFFFF;" d="M440.327,162.532c1.985-1.151,4.607-0.656,5.942,1.647l9.535,16.436
		c6.31,10.877,7.281,21.881-5.661,29.389c-8.893,5.159-16.323,4.056-21.692-0.257l-11.929,19.866
		c-0.293,0.595-0.801,0.996-1.199,1.226c-3.097,1.796-8.826-0.398-10.945-4.05c-0.922-1.588-1.161-3.465,0-5.306l14.81-23.13
		l-3.04-5.24l-19.135,11.1c-2.541,1.474-5.607-0.886-7.404-3.982c-1.796-3.097-2.322-6.93,0.218-8.404L440.327,162.532z
		 M440.445,179.017l-14.769,8.567l4.56,7.861c2.58,4.446,5.972,6.087,11.529,2.863c5.558-3.225,5.818-6.983,3.239-11.429
		L440.445,179.017z"/>
	<path style="fill:#FFFFFF;" d="M421.479,272.457l28.093-22.879l-30.696,5.627c-2.889,0.53-4.979-2.726-5.625-6.247
		c-0.646-3.521,0.154-7.307,3.043-7.836l57.329-10.509c2.979-0.546,4.979,2.727,5.625,6.247c0.927,5.056,0.822,7.034-5.14,11.674
		l-25.217,19.739l30.696-5.627c2.98-0.546,4.889,2.743,5.535,6.264c0.646,3.521,0.027,7.274-2.953,7.82l-57.419,10.524
		c-2.889,0.53-4.979-2.727-5.625-6.247C418.532,277.757,418.633,274.752,421.479,272.457z"/>
</g>
<g>
</g>
<g>
</g>
<g>
</g>
<g>
</g>
<g>
</g>
<g>
</g>
<g>
</g>
<g>
</g>
<g>
</g>
<g>
</g>
<g>
</g>
<g>
</g>
<g>
</g>
<g>
</g>
<g>
</g>
</svg>
