<?xml version="1.0" encoding="iso-8859-1"?>
<!-- Generator: Adobe Illustrator 19.0.0, SVG Export Plug-In . SVG Version: 6.00 Build 0)  -->
<svg version="1.1" id="Capa_1" xmlns="http://www.w3.org/2000/svg" xmlns:xlink="http://www.w3.org/1999/xlink" x="0px" y="0px"
	 viewBox="0 0 512 512" style="enable-background:new 0 0 512 512;" xml:space="preserve">
<path style="fill:#1D2123;" d="M512,256c0,40.375-9.352,78.576-26.008,112.546c-9.749,19.895-22.006,38.337-36.352,54.909
	C402.693,477.696,333.354,512,256,512c-77.375,0-146.745-34.335-193.682-88.597c-14.346-16.572-26.593-35.015-36.342-54.909
	C9.341,334.535,0,296.354,0,256C0,114.615,114.615,0,256,0S512,114.615,512,256z"/>
<path style="fill:#DCA200;" d="M499.503,288.392c0,28.087-4.754,55.056-13.511,80.154c-9.749,19.895-22.006,38.337-36.352,54.909
	C402.693,477.696,333.354,512,256,512c-77.375,0-146.745-34.335-193.682-88.597c-14.346-16.572-26.593-35.015-36.342-54.909
	c-8.746-25.088-13.49-52.036-13.49-80.102C12.487,153.903,121.511,44.889,256,44.889
	C390.478,44.889,499.503,153.903,499.503,288.392z"/>
<path style="fill:#234EA8;" d="M492.074,288.392c0,50.228-15.684,96.789-42.433,135.064C402.693,477.696,333.354,512,256,512
	c-77.375,0-146.745-34.335-193.682-88.597c-26.728-38.264-42.402-84.804-42.402-135.011C19.916,158.009,125.618,52.308,256,52.308
	S492.074,158.009,492.074,288.392z"/>
<g>
	<path style="fill:#FFFFFF;" d="M113.707,398.609c0.973-0.767,2.273-0.157,3.097,0.887l9.92,12.568
		c0.796,1.008,0.093,2.265-0.88,3.032c-1.116,0.881-2.487,1.144-3.226,0.208l-7.845-9.939l-7.202,5.685l4.349,5.51
		c0.739,0.936,0.237,2.151-0.736,2.918c-0.829,0.654-2.142,0.99-2.937-0.019l-4.349-5.51l-9.867,7.789
		c-0.973,0.767-2.415-0.023-3.324-1.176c-0.938-1.188-1.344-2.739-0.371-3.506L113.707,398.609z"/>
	<path style="fill:#FFFFFF;" d="M114.831,433.618l8.709-9.379c5.213-5.614,10.577-4.514,15.015-0.394
		c4.438,4.121,5.965,9.42,0.751,15.034l-8.709,9.379c-5.213,5.614-10.611,4.483-15.049,0.363
		C111.111,444.501,109.618,439.232,114.831,433.618z M134.937,434.821c2.466-2.656,2.245-5.115,0.061-7.144
		c-2.218-2.061-4.621-2.036-7.086,0.62l-8.709,9.379c-2.466,2.656-2.312,5.052-0.094,7.113c2.185,2.029,4.654,2.068,7.12-0.588
		L134.937,434.821z"/>
	<path style="fill:#FFFFFF;" d="M138.696,454.733l7.115-10.637c4.259-6.368,9.729-6.13,14.761-2.764
		c5.033,3.366,7.379,8.357,3.12,14.724l-7.115,10.638c-4.259,6.368-9.767,6.104-14.8,2.739
		C136.745,466.065,134.437,461.101,138.696,454.733z M158.736,452.74c2.015-3.012,1.407-5.404-1.071-7.062
		c-2.516-1.683-4.884-1.279-6.898,1.732l-7.115,10.637c-2.015,3.012-1.484,5.354,1.032,7.036c2.479,1.657,4.921,1.305,6.936-1.707
		L158.736,452.74z"/>
	<path style="fill:#FFFFFF;" d="M192.613,458.45c1.166,0.54,1.128,2.04,0.588,3.205c-0.598,1.29-1.762,2.167-2.844,1.666
		l-6.078-2.815l-11.048,23.853c-0.52,1.124-2.164,1.07-3.496,0.453c-1.374-0.636-2.436-1.836-1.915-2.96l11.048-23.853l-6.119-2.835
		c-1.083-0.502-1.186-1.914-0.569-3.246c0.54-1.166,1.659-2.164,2.825-1.624L192.613,458.45z"/>
	<path style="fill:#FFFFFF;" d="M198.752,462.762c0.339-1.191,1.749-1.459,3.029-1.095l8.517,2.418
		c4.589,1.303,8.444,4.019,6.664,10.285c-1.027,3.618-3.116,5.601-5.743,5.951c2.391,1.823,3.755,4.071,2.503,8.484l-0.263,0.927
		c-1.954,6.884-6.495,8.265-11.481,6.849l-9.355-2.656c-1.544-0.439-2.277-1.553-2.014-2.48L198.752,462.762z M202.214,491.212
		c2.692,0.765,4.694-0.24,5.646-3.594l0.201-0.706c0.977-3.442-0.26-5.128-2.952-5.892l-4.986-1.416l-2.894,10.193L202.214,491.212z
		 M201.4,475.102l4.942,1.403c2.383,0.676,3.969-0.542,4.608-2.793c0.652-2.295-0.272-4.082-2.521-4.721l-4.898-1.391L201.4,475.102
		z"/>
	<path style="fill:#FFFFFF;" d="M220.126,498.532c0.01-0.091,0.077-0.269,0.144-0.445l12.111-27.647
		c0.568-1.32,2.328-1.763,4.014-1.567c1.731,0.201,3.344,1.033,3.595,2.448l5.479,29.682c0.025,0.187,0.054,0.329,0.039,0.466
		c-0.164,1.413-2.426,2.213-4.022,2.028c-1.003-0.116-1.741-0.525-1.868-1.417l-1.03-6.261l-10.435-1.207l-2.434,5.861
		c-0.328,0.839-1.14,1.069-2.142,0.953C221.982,501.241,219.956,499.991,220.126,498.532z M237.85,491.024l-2.346-14.449
		l-5.583,13.531L237.85,491.024z"/>
	<path style="fill:#FFFFFF;" d="M258.164,503.908c-1.329,0.048-2.636-0.546-2.681-1.785l-1.083-29.799
		c-0.047-1.283,1.4-1.887,2.913-1.942c1.467-0.053,3,0.442,3.047,1.726l0.961,26.453l11.187-0.406
		c1.192-0.044,1.835,1.218,1.883,2.548c0.047,1.283-0.501,2.635-1.693,2.678L258.164,503.908z"/>
	<path style="fill:#FFFFFF;" d="M287.22,501.612c-1.309,0.234-2.686-0.171-2.905-1.391l-5.253-29.351
		c-0.227-1.264,1.122-2.065,2.612-2.331c1.445-0.258,3.032,0.017,3.258,1.281l4.662,26.055l11.018-1.972
		c1.173-0.21,1.987,0.949,2.221,2.258c0.227,1.264-0.126,2.679-1.301,2.889L287.22,501.612z"/>
	<path style="fill:#FFFFFF;" d="M326.341,461.257c-2.831,1.198-3.774,3.441-2.379,6.736l4.988,11.787
		c1.395,3.296,3.661,4.179,6.577,2.946c3.844-1.627,3.021-4.516,2.396-6.345c-0.47-1.346,0.534-2.268,1.971-2.877
		c1.901-0.805,3.021-0.631,3.933,1.523c2.164,5.112-0.643,10.136-6.557,12.639c-5.324,2.253-10.825,1.493-13.811-5.562
		l-4.988-11.788c-2.986-7.055,0.341-11.552,5.664-13.805c5.872-2.485,11.379-1.13,13.453,3.771c0.93,2.197,0.257,3.079-1.602,3.866
		c-1.563,0.661-2.901,0.679-3.479-0.569C331.867,462.306,330.355,459.558,326.341,461.257z"/>
	<path style="fill:#FFFFFF;" d="M359.316,476.455c-1.134,0.697-2.564,0.822-3.213-0.233l-15.614-25.406
		c-0.673-1.094,0.289-2.332,1.58-3.124c1.251-0.769,2.829-1.093,3.501,0.002l13.861,22.552l9.537-5.861
		c1.017-0.625,2.197,0.158,2.893,1.291c0.673,1.094,0.861,2.54-0.155,3.165L359.316,476.455z"/>
	<path style="fill:#FFFFFF;" d="M372.815,427.702c-0.831-0.98-0.066-2.349,1.09-3.327c1.12-0.949,2.631-1.507,3.462-0.527
		l13.875,16.384c4.952,5.846,3.078,11.16-1.612,15.132c-4.726,4.003-10.241,4.946-15.192-0.902l-13.875-16.384
		c-0.831-0.98-0.066-2.349,1.09-3.328c1.12-0.949,2.631-1.507,3.462-0.527l13.875,16.384c2.312,2.73,4.845,2.811,7.261,0.765
		c2.416-2.046,2.754-4.557,0.442-7.287L372.815,427.702z"/>
	<path style="fill:#FFFFFF;" d="M382.697,418.496c-0.943-0.804-0.598-2.198,0.266-3.21l5.746-6.736
		c3.096-3.63,7.171-6.003,12.127-1.775c2.862,2.441,3.794,5.166,3.019,7.701c2.654-1.415,5.265-1.719,8.755,1.258l0.732,0.625
		c5.445,4.645,4.81,9.349,1.445,13.292l-6.312,7.399c-1.042,1.221-2.36,1.424-3.093,0.798L382.697,418.496z M395.019,421.229
		l3.334-3.909c1.608-1.885,1.16-3.834-0.62-5.353c-1.815-1.549-3.825-1.453-5.344,0.326l-3.305,3.874L395.019,421.229z
		 M410.006,427.198c1.816-2.129,1.737-4.368-0.916-6.631l-0.558-0.476c-2.723-2.322-4.771-1.9-6.588,0.23l-3.365,3.944l8.062,6.878
		L410.006,427.198z"/>
	<path style="fill:#FFFFFF;" d="M143.897,107.515c-3.32,2.245-3.961,5.353-1.347,9.217l9.352,13.822
		c2.614,3.864,5.738,4.423,9.155,2.111c4.508-3.05,2.726-6.539,1.466-8.72c-0.94-1.603,0.112-3.036,1.796-4.176
		c2.229-1.509,3.705-1.568,5.415,0.958c4.056,5.995,1.732,13.128-5.204,17.821c-6.242,4.223-13.473,4.638-19.07-3.635l-9.352-13.822
		c-5.598-8.274-2.474-14.865,3.768-19.088c6.886-4.659,14.271-4.312,18.159,1.435c1.743,2.577,1.104,3.874-1.075,5.35
		c-1.833,1.24-3.539,1.601-4.594,0.147C151.23,107.464,148.603,104.33,143.897,107.515z"/>
	<path style="fill:#FFFFFF;" d="M195.079,100.95l-12.53,4.909l6.261,15.983c0.589,1.504-0.944,3.003-2.725,3.701
		c-1.838,0.72-3.926,0.638-4.514-0.865l-14.18-36.198c-0.611-1.559,0.909-2.926,2.747-3.646c1.783-0.698,3.882-0.749,4.492,0.81
		l5.694,14.536l12.53-4.909l-5.694-14.536c-0.611-1.559,0.909-2.926,2.747-3.646c1.783-0.698,3.882-0.749,4.492,0.81l14.18,36.198
		c0.589,1.504-0.944,3.003-2.725,3.701c-1.838,0.72-3.926,0.638-4.514-0.865L195.079,100.95z"/>
	<path style="fill:#FFFFFF;" d="M222.094,88.391l8.981-1.418c1.536-0.242,2.656,1.094,2.908,2.69
		c0.214,1.359-0.302,3.075-1.956,3.336l-8.981,1.418l1.876,11.875l16.72-2.64c1.536-0.242,2.674,1.213,2.963,3.044
		c0.252,1.596-0.246,3.43-1.9,3.692l-21.034,3.322c-1.714,0.271-3.498-0.296-3.75-1.89l-6.055-38.346
		c-0.252-1.596,1.272-2.683,2.985-2.954l21.034-3.322c1.654-0.261,2.693,1.331,2.945,2.926c0.289,1.832-0.345,3.566-1.881,3.81
		l-16.72,2.64L222.094,88.391z"/>
	<path style="fill:#FFFFFF;" d="M255.423,110.127c-1.733-0.068-3.374-0.97-3.31-2.584l1.52-38.848
		c0.066-1.674,2.006-2.315,3.978-2.238c1.912,0.075,3.857,0.869,3.791,2.543l-1.35,34.485l14.583,0.571
		c1.554,0.061,2.265,1.765,2.197,3.498c-0.066,1.674-0.91,3.376-2.464,3.315L255.423,110.127z"/>
	<path style="fill:#FFFFFF;" d="M303.548,104.884c2.08-8.727-17.233-10.502-13.947-24.291c2.066-8.668,10.22-9.861,16.911-8.266
		c3.432,0.818,10.86,3.449,9.945,7.289c-0.319,1.339-1.888,3.793-3.982,3.294c-1.803-0.429-2.614-2.959-7.501-4.124
		c-4.189-0.998-6.977,0.12-7.642,2.913c-1.72,7.214,17.552,9.164,13.961,24.232c-1.983,8.319-8.827,11.238-16.856,9.325
		c-7.621-1.817-12.524-7.044-11.72-10.418c0.388-1.629,2.484-3.711,4.287-3.282c2.385,0.568,2.888,5.423,8.823,6.837
		C299.316,109.225,302.716,108.375,303.548,104.884z"/>
	<path style="fill:#FFFFFF;" d="M333.053,101.367l8.234,3.858c1.409,0.659,1.586,2.395,0.901,3.857
		c-0.583,1.246-1.973,2.378-3.49,1.668l-8.234-3.858l-5.101,10.888l15.329,7.182c1.409,0.659,1.536,2.503,0.749,4.182
		c-0.685,1.463-2.125,2.703-3.641,1.993l-19.284-9.034c-1.57-0.736-2.732-2.205-2.047-3.668l16.47-35.155
		c0.685-1.462,2.557-1.51,4.127-0.774l19.284,9.034c1.517,0.711,1.485,2.611,0.8,4.074c-0.787,1.679-2.284,2.761-3.693,2.101
		l-15.329-7.182L333.053,101.367z"/>
	<path style="fill:#FFFFFF;" d="M345.075,131.272c0.072-0.095,0.265-0.249,0.458-0.403l31.986-22.92
		c1.516-1.1,3.784-0.425,5.543,0.916c1.808,1.378,3.059,3.385,2.4,5.139l-13.627,36.916c-0.097,0.227-0.159,0.405-0.268,0.549
		c-1.124,1.474-4.193,0.864-5.859-0.404c-1.047-0.797-1.601-1.747-1.15-2.832l3.015-7.704l-10.892-8.303l-6.63,4.949
		c-0.927,0.722-1.989,0.439-3.035-0.358C345.353,135.544,343.916,132.793,345.075,131.272z M369.942,134.66l6.993-17.757
		l-15.269,11.448L369.942,134.66z"/>
</g>
<circle style="fill:#DCA200;" cx="256" cy="288.392" r="167.612"/>
<circle style="fill:#FFFFFF;" cx="256" cy="288.392" r="159.472"/>
<g>
	<path style="fill:#D1D3D4;" d="M362.074,271.842c-16.841-2.904-23.519,9.384-23.519,9.384c0-9.582,25.742-25.742,31.648-31.648
		c11.074-11.074,3.287-36.776-17.422-33.484c-20.714,3.287-17.422,20.517-17.422,20.517c0.063-0.748,0.199-1.46,0.391-2.137
		l-0.391,2.137c1.208-7.259,11.403-11.619,16.161-3.194c7.912,14.009-29.036,23.664-29.036,44.569
		c0,18.728,14.419,27.076,18.873,34.116c4.5,7.114,5.439,19.43-6.387,21.922c-9.17,1.932-18.358-3.873-22.662-10.222
		c-0.901-1.775-1.695-3.616-2.394-5.479l0,0l0,0c-3.453-9.21-4.561-18.922-4.561-23.641c0-10.261-6.58-17.422-6.58-17.422
		l0.018-9.523c3.943,1.899,8.589,2.509,13.142-0.738c11.423-8.13,1.358-20.517,1.358-20.517s-1.162,6.777-9.489,4.257
		c-8.322-2.514-10.836-18.966-2.904-23.031c7.938-4.065,15.295,5.808,15.295,5.808c-1.939-4.646-0.238-15.417-0.238-15.417
		c-1.498,0.499-3.49,0.819-5.958,0.511c-6.196-0.772-2.904-9.68,3.485-11.225c6.387-1.551,5.999,4.448,5.999,4.448
		c1.551-3.658,4.442-7.7,7.067-10.946l-0.482-2.7l2.119,0.72c2.195-2.579,3.879-4.298,3.879-4.298s-2.323-3.873-5.999-5.227
		c-1.992-0.738-2.736-2.264-2.997-3.513c-0.256-1.202-1.242-2.114-2.45-2.334c-11.173-2.055-16.777-3.292-24.749-6.736
		c-8.519-3.676-8.13-12.776-8.13-12.776c-18.049,9.001-12.438,15.679-12.438,15.679c-1.362,0-2.947,0-4.791,0
		c-9.482,0-12.003,8.13-12.003,8.13s7.212,1.306,8.229,6.097s0,9.527-8.275,14.345l0,0c-3.073,0.566-5.66-0.346-7.53-1.464
		l-3.259-2.719c-6.725,9.291,5.418,15.099,5.418,15.099c0,6.533-9.001,17.566-9.001,17.566c-6.321,0.842-18.368-1.753-23.077-4.091
		c-0.125-0.066-0.251-0.131-0.376-0.196c-0.024-0.013-0.051-0.026-0.075-0.039l0,0c-1.114-0.577-2.223-1.125-3.313-1.644l0,0
		c0,0-8.419-7.688-16.23-10.428v-5.426c0,0,16.26-8.13,16.26-22.456c0-20.517-19.163-22.456-23.031-22.456
		c-3.095-0.248-18.682,2.421-21.005,15.197s3.629,23.519,15.58,26.811l-5.61,2.323c1.872,1.872,4.423,2.563,6.725,2.743v2.915
		l-0.917-0.432c0,0-5.034,1.161-7.357,5.61c-2.323,4.454,2.323,7.747,2.323,7.747s-3.676,0.964-3.676,4.065
		c0,3.095,3.287,5.999,3.287,5.999c-1.544,4.837,3.292,7.549,6.004,7.549v48.198c0,0-4.791,1.841-5.784,5.784
		c0,0-7.288,0.801-6.608,10.865c2.123-2.123,4.582-2.476,6.602-2.25c-0.001,0.001-4.668,4.132-1.956,10.181
		c1.848-1.846,3.871-2.692,5.654-3.04c0,0-0.567,4.642,2.673,7.883v36.921h-3.728v4.936v2.032v3.049h5.372
		c-2.975,1.816-4.068,5.227-4.068,8.131c0,0-0.034,1.47,0.964,3.056v0.001h0.001c1.011,1.604,3.079,3.326,7.312,3.764
		c8.42,0.871,11.324-13.065,2.904-15.243h4.936V364.22h-2.904v-30.779c0.827,0.25,1.87,0.278,3.147-0.242c0,0,0-7.16,9.094-11.614
		c9.1-4.448,15.487,3.485,15.487,3.485c16.841-4.065,30.197-20.517,30.197-20.517l7.357,13.356
		c-5.418,2.613-26.666,16.114-34.506,30.051c-7.84,13.937,6.678,19.454,6.678,19.454c-1.306,23.664-9.436,25.696-14.518,25.696
		c-5.081,0-16.405-2.323-22.792,2.613s-2.032,14.128-2.032,14.128c-2.486,8.886,4.837,11.423,4.837,11.423l-0.262-1.226
		c-0.768-5.996,7.401-7.874,9.947-7.874c0.414,0,0.857,0,1.306,0c-1.887,7.886,5.273,10.842,5.273,10.842
		c0-7.746,6.012-10.178,10.401-10.923l0,0c0,7.514,7.409,8.601,7.409,8.601c-1.161-5.615,5.418-8.322,7.938-8.322
		c2.514,0,9.482-1.742,11.614-13.937c3.287-16.648,20.859-18.194,20.859-18.194c-9.221-2.067-17.334-5.976-15.052-13.362
		c2.673-8.662,11.843-11.296,19.518-11.921l-0.002,0.002c0,0,4.05,16.228,24.374,20.438c0,0,7.259,12.486-1.451,22.357
		c0,0-28.693-3.629-23.274,16.55c0,0,0.793,5.827,4.448,9.482c0-4.837,4.065-8.322,9.489-8.322c1.8,0,3.317,0,4.547,0
		c0,0-0.633,7.695,3.966,9.291c0-6.879,6.106-8.588,9.812-8.992l0,0c0,0,0.212,5.851,4.904,7.059l0.042-0.799
		c0.323-3.048,2.495-4.747,5.031-5.683c4.742-1.752,7.647-6.577,7.229-11.614c-2.444-29.506,14.41-46.361,14.41-46.361
		c-26.166,10.888-34.43-19.877-34.645-20.696c5.267,9.477,44.522,18.165,49.546-2.341c5.034-20.517-11.805-28.065-15.29-38.135
		c-0.169-0.49-0.287-0.976-0.379-1.46c-1.111-7.729,8.834-10.594,15.332-2.652c6.533,7.985,0,13.501,0,13.501l4.21-2.225
		C380.895,294.663,378.914,274.745,362.074,271.842z M201.22,253.259c0,0,7.708,1.124,14.004,3.695
		c9.916,9.916-1.821,13.024-1.821,13.024c1.597,2.41,4.483,4.768,9.686,4.768c10.65,0,15.679-7.938,15.679-7.938
		c4.454,0.97,6.196,6.196,6.196,6.196s-22.285,10.716-27.874,16.306s-15.871,8.275-15.871,8.275v-44.325H201.22z M235.382,417.935
		l0.085-0.935c0.784,1.719,1.94,3.061,2.364,3.52L235.382,417.935z"/>
	<path style="fill:#D1D3D4;" d="M321.52,213.189c0,0,2.613,5.613,11.324,5.227s10.065-9.775,10.065-12.776
		c0,0-6.291,11.324-18.292,3.29L321.52,213.189z"/>
</g>
<g>
	<path style="fill:#6979B7;" d="M326.651,229.932c1.208-7.259,11.403-11.619,16.161-3.194c7.912,14.009-29.036,23.664-29.036,44.569
		c0,18.728,14.419,27.076,18.873,34.116c4.5,7.114,5.439,19.43-6.387,21.922c-11.827,2.492-23.688-7.885-25.056-15.702l-3.109,7.717
		l13.937,15.243l21.341,3.919l14.808-11.033l-3.194-19.454l-17.422-27.438v-17.565l23.519-21.777l5.808-19.163l-15.388-6.533
		l-11.324,4.791l-2.468,3.774L326.651,229.932z"/>
	<path style="fill:#6979B7;" d="M229.284,414.015c0,0-7.409-1.087-7.409-8.601c0-3.594-5.947-3.594-5.947-3.594l-2.613,6.533
		l-2.323,4.065l0.482,3.919c0,0-7.16-2.956-5.273-10.842s-6.242-0.772-6.242-0.772l-4.21,2.759l-1.451,2.904l0.917,4.21
		c0,0-7.323-2.536-4.837-11.423c0,0-4.355-9.193,2.032-14.128c6.387-4.936,17.711-2.613,22.792-2.613s13.211-2.032,14.518-25.696
		c0,0-14.518-5.517-6.678-19.454c7.84-13.937,29.088-27.438,34.506-30.051c5.418-2.613,5.418-9.436,5.418-9.436l7.114-8.42
		l15.824,2.323l-2.032,32.519l-33.391,21.196l-11.178,47.037l-11.905,6.823l-0.726,7.985L229.284,414.015z"/>
	<path style="fill:#6979B7;" d="M356.459,297.683l-4.21,2.225c0,0,6.533-5.517,0-13.501s-16.553-5.048-15.318,2.774
		c1.236,7.823-6.023-1.613-6.023-1.613l10.017-16.114l18.873,1.162l2.759,12.195l-2.613,9.146L356.459,297.683z"/>
	<path style="fill:#6979B7;" d="M179.051,376.561c0-2.906,1.094-6.315,4.068-8.132c2.975-1.816,9.727,5.662,9.727,5.662
		l-2.178,5.517l-6.097,2.178l-4.555-2.167L179.051,376.561z"/>
	<path style="fill:#6979B7;" d="M211.854,225.752c4.342,2.393,16.995,5.196,23.528,4.326c0,0,9.001-11.033,9.001-17.566
		c0,0-12.143-5.808-5.418-15.099l10.79,9.001v-4.818c8.275-4.818,9.291-9.555,8.275-14.345c-1.017-4.791-8.229-6.097-8.229-6.097
		l5.058-5.058h7.671l4.065-3.072c0,0-5.609-6.678,12.438-15.679l-1.841,7.114l2.468,18.001l-14.518,31.938l-10.597,28.89
		l-15.243,12.485l-4.21,2.759l-7.404-1.887l-6.968-21.486L211.854,225.752z"/>
	<path style="fill:#6979B7;" d="M204.691,263.3c0,0,11.737-3.108,1.821-13.024c-9.916-9.916,13.287-9.916,13.287-9.916l5.227,19.963
		l-10.84,5.033h-5.808L204.691,263.3z"/>
	<path style="fill:#6979B7;" d="M181.231,208.592v7.404l25.115,10.308l2.194-2.194c0,0-10.47-9.565-18.89-11.162l-1.017-6.242
		L181.231,208.592z"/>
	<path style="fill:#6979B7;" d="M180.116,205.351c-11.95-3.292-17.903-14.035-15.58-26.811c2.323-12.776,17.91-15.445,21.005-15.197
		c3.095,0.248-4.019,9.68-4.019,9.68l-3.774,6.533l6.678,20.034L180.116,205.351z"/>
	<path style="fill:#6979B7;" d="M236.252,266.325c0,0-22.285,10.716-27.874,16.306s-15.871,8.275-15.871,8.275l-3.583-2.032v-46.166
		l-8.031,1.162v48.198c0,0-4.791,1.841-5.784,5.784c0,0-7.288,0.801-6.608,10.865l3.438-4.309l3.164,2.06
		c0,0-4.668,4.13-1.956,10.181l3.873-4.837l4.21-1.742l-2.429,3.539c0,0-0.567,4.642,2.673,7.883v36.921h-3.728v6.968l9.872-0.871
		l1.887-14.954l0.436-24.534c0,0,1.794,2.997,5.47,1.498l-3.485-7.549v-14.709l34.453-10.308l29.47-25.26l-1.161-5.808
		l-15.099,0.871L236.252,266.325z"/>
	<path style="fill:#6979B7;" d="M274.158,348.282c0,0,4.05,16.228,24.374,20.438c0,0,7.259,12.485-1.451,22.357
		c0,0-28.693-3.629-23.274,16.55c0,0,0.793,5.827,4.448,9.482l-0.482-4.982l5.662-5.517l8.856,2.178c0,0-0.633,7.695,3.966,9.291
		l-0.627-4.646l6.242-6.242l4.195,1.895c0,0,0.212,5.851,4.904,7.059l0.627-12.003l4.21-37.31l-17.856-15.679l-15.824-8.855
		L274.158,348.282z"/>
</g>
<path style="fill:#234EA8;" d="M353.364,265.164c-16.841-2.904-23.519,9.384-23.519,9.384c0-9.582,25.742-25.742,31.648-31.648
	c11.074-11.074,3.287-36.776-17.422-33.484c-20.714,3.287-17.422,20.517-17.422,20.517c0.964-11.423,17.903-14.616,22.647-6.58
	c5.9,10.545,1.544,15.099-20.324,33.872c-21.126,18.135,4.257,37.937,10.256,47.426c6.004,9.482,9.1,29.418-14.128,28.455
	c-23.228-0.97-28.455-34.842-28.455-45.103s-6.58-17.422-6.58-17.422l0.018-9.523c3.943,1.899,8.589,2.509,13.142-0.738
	c11.423-8.13,1.358-20.517,1.358-20.517s-1.162,6.777-9.489,4.257c-8.322-2.514-10.836-18.966-2.904-23.031
	c7.938-4.065,15.295,5.807,15.295,5.807c-1.939-4.646-0.238-15.417-0.238-15.417c-1.498,0.499-3.49,0.819-5.958,0.511
	c-6.196-0.772-2.904-9.68,3.485-11.225c6.387-1.551,5.999,4.448,5.999,4.448c1.551-3.658,4.443-7.7,7.067-10.946l-0.482-2.7
	l2.119,0.72c2.195-2.579,3.879-4.298,3.879-4.298s-2.323-3.873-5.999-5.227c-1.992-0.738-2.736-2.264-2.997-3.513
	c-0.256-1.202-1.242-2.114-2.45-2.334c-11.173-2.055-16.777-3.292-24.749-6.736c-8.519-3.676-8.13-12.776-8.13-12.776
	c-12.584,9.482-5.034,15.679-5.034,15.679s-2.711,0-12.195,0c-9.482,0-12.003,8.13-12.003,8.13
	c6.004-5.999,17.618,1.934,12.003,10.842c-12.584,18.194-22.839,5.418-22.839,5.418c0,12.195,13.937,13.937,13.937,13.937
	c-1.161,6.777-11.423,23.419-11.423,23.419s2.514,2.52,0.581,10.65c-1.934,8.13-9.889,8.705-9.889,8.705
	c1.969-3.937,2.369-9.059-2.305-14.901c-10.842-13.548-37.554-21.486-37.554-21.486v-9.482c0,0,16.26-8.13,16.26-22.456
	c0-20.517-19.163-22.456-23.031-22.456c-3.873,0-15.295,2.712-16.457,19.361c-1.161,16.643,11.033,22.647,11.033,22.647l-5.61,2.323
	c4.355,4.355,12.386,2.323,12.386,2.323v5.999l-6.58-3.095c0,0-5.034,1.161-7.357,5.61c-2.323,4.454,2.323,7.747,2.323,7.747
	s-3.676,0.964-3.676,4.065c0,3.095,3.287,5.999,3.287,5.999c-1.544,4.837,3.292,7.549,6.004,7.549c2.706,0,5.999,2.712,5.999,6.58
	c0,3.873,0,40.457,0,40.457h5.615V246.58c0,0,19.936,2.904,21.87,10.063c1.939,7.16-9.686,6.655-9.686,6.655
	c1.597,2.41,4.483,4.768,9.686,4.768c10.65,0,15.679-7.938,15.679-7.938c4.454,0.97,6.196,6.196,6.196,6.196l15.29,1.162
	c0,0-12.195,7.741-29.999,18.194c-17.81,10.453-28.652,10.644-36.781,10.644c-8.13,0-8.031,4.164-8.031,4.164
	c-7.259,0-8.229,8.229-8.229,8.229c4.553-4.553,10.65-0.97,10.65-0.97c-5.424,2.323-6.004,8.903-6.004,8.903
	c4.744-4.739,10.65-2.904,10.65-2.904c-2.613,2.613-2.323,7.747-2.323,7.747c1.809-2.606,3.726-3.614,5.418-3.857v41.939
	c0,0-0.581,2.323-9.146,3.774v5.081h5.372c0,0,7.114,1.162,4.936,7.84c-1.552,4.759-6.808,3.658-9.004,0.293
	c0,0-0.142,5.95,8.278,6.821s11.324-13.065,2.904-15.243h4.936v-10.597h-2.904v-35.27c0.948,2.542,3.147,4.249,3.147,4.249
	s0-7.16,9.094-11.614c9.1-4.448,15.487,3.485,15.487,3.485c16.841-4.065,30.197-20.517,30.197-20.517l7.357,13.356
	c0,0,6.289,2.805,11.225-2.132s1.196-12.868,1.196-12.868c4.181,0.447,8.351,2.044,9.257,6.48
	c1.934,9.489-7.741,15.487-17.422,19.942c-9.68,4.448-28.455,10.836-31.55,21.289c-3.101,10.453,7.84,15.679,7.84,15.679
	s0,12.874-6.294,21.486c-6.289,8.617-11.417,9.1-27.485,9.1s-13.937,12.967-13.937,12.967h4.837c-4.936,4.936,0,11.423,0,11.423
	c-2.125-6.968,6.968-9.1,9.68-9.1s6.58,0,6.58,0c-4.646,4.646,0,10.842,0,10.842c0-12.195,14.907-11.225,14.907-11.225
	c-1.742,4.257,2.904,8.903,2.904,8.903c-1.162-5.615,5.418-8.322,7.938-8.322c2.514,0,9.482-1.742,11.614-13.937
	c3.287-16.648,20.859-18.194,20.859-18.194c-9.221-2.067-17.334-5.976-15.052-13.362c4.837-15.679,30.969-11.614,30.969-11.614
	c0,14.518,19.744,12.584,19.744,12.584c10.453,15.871-3.485,32.519-3.485,32.519c-30.777-1.742-28.065,13.937-28.065,13.937h4.448
	c-3.194,3.194,0,9.482,0,9.482c0-4.837,4.065-8.322,9.489-8.322c5.418,0,8.322,0,8.322,0c-3.966,3.966,0.191,9.291,0.191,9.291
	c0-9.872,12.584-9.1,12.584-9.1c-0.97,3.292,2.132,7.166,2.132,7.166c0-3.511,2.264-5.418,4.967-6.444
	c4.756-1.805,7.762-6.538,7.338-11.608c-2.466-29.534,14.407-46.407,14.407-46.407c-26.166,10.888-34.429-19.877-34.645-20.696
	c5.267,9.477,44.522,18.165,49.546-2.341c5.034-20.517-11.805-28.065-15.29-38.135c-3.485-10.063,10.063-18.966,18.194-10.836
	c8.13,8.129,0.97,18.001,0.97,18.001C372.184,287.985,370.203,268.066,353.364,265.164z"/>
<g>
	<path style="fill:#FFFFFF;" d="M296.84,191.509c0,0-11.517-3.194-8.807-6.775h5.904c0,0-0.871,3.774,3.774,5.129L296.84,191.509z"
		/>
	<path style="fill:#FFFFFF;" d="M299.792,187.783l1.791-2.952h-4.065C297.517,184.831,296.259,187.783,299.792,187.783z"/>
</g>
<g>
	<path style="fill:#6979B7;" d="M189.991,224.222c0,0-7.066-5.904-11.227-5.904c-4.162,0-3.581,5.42-1.162,5.904
		C180.02,224.705,186.409,225.674,189.991,224.222z"/>
	<path style="fill:#6979B7;" d="M179.184,227.569c1.937,0.39,6.931,1.533,10.225,3.524c0,0-3.836,2.408-11.165,2.001
		c-0.669-0.038-1.286-0.387-1.629-0.962c-0.598-1.003-1.067-2.692,1.031-4.244C178.085,227.564,178.649,227.461,179.184,227.569z"/>
	<path style="fill:#6979B7;" d="M187.861,237.772c-2.204-1.028-5.968-1.499-7.656-1.667c-0.768-0.076-1.542,0.295-1.878,0.99
		c-0.246,0.508-0.312,1.193,0.182,2.046c0.391,0.674,1.176,1.015,1.945,0.892C182.274,239.745,185.888,239.04,187.861,237.772z"/>
</g>
<path style="fill:none;stroke:#6979B7;stroke-miterlimit:10;" d="M181.365,186.246c-0.139-0.465-0.209-0.952-0.209-1.463
	c0-0.697,0.134-1.365,0.383-1.975C181.354,184.011,181.284,185.166,181.365,186.246z"/>
<path style="fill:#6979B7;" d="M189.362,199.01l0.581-5.372c-6.133-0.754-8.292-3.629-8.577-7.393
	c0.633,2.218,2.677,3.839,5.093,3.839c2.927,0,5.302-2.375,5.302-5.302c0-2.927-2.375-5.302-5.302-5.302
	c-2.23,0-4.135,1.376-4.918,3.327c0.034-0.256,0.081-0.522,0.127-0.784c1.306-7.114,15.099-8.13,15.824,1.742
	C198.217,193.638,189.362,199.01,189.362,199.01z"/>
<circle style="fill:#D1D3D4;" cx="186.462" cy="184.78" r="5.302"/>
<g>
	<path style="fill:#DE0029;" d="M315.906,202.253l-3.097,4.259c0,0,2.613,5.613,11.324,5.227s10.065-9.775,10.065-12.776
		C334.198,198.961,327.907,210.285,315.906,202.253z"/>
	<circle style="fill:#DE0029;" cx="451.114" cy="237.192" r="21.486"/>
</g>
<path style="fill:#FFFFFF;" d="M451.113,261c-13.128,0-23.809-10.681-23.809-23.809c0-13.128,10.681-23.809,23.809-23.809
	c13.128,0,23.809,10.681,23.809,23.809C474.922,250.319,464.241,261,451.113,261z M451.113,218.027
	c-10.567,0-19.163,8.596-19.163,19.163s8.596,19.163,19.163,19.163c10.567,0,19.163-8.596,19.163-19.163
	C470.276,226.624,461.68,218.027,451.113,218.027z"/>
<circle style="fill:#DE0029;" cx="451.114" cy="339.863" r="21.486"/>
<path style="fill:#FFFFFF;" d="M451.113,363.67c-13.128,0-23.809-10.681-23.809-23.809c0-13.128,10.681-23.809,23.809-23.809
	c13.128,0,23.809,10.681,23.809,23.809C474.922,352.99,464.241,363.67,451.113,363.67z M451.113,320.699
	c-10.567,0-19.163,8.596-19.163,19.163c0,10.567,8.596,19.163,19.163,19.163c10.567,0,19.163-8.596,19.163-19.163
	C470.276,329.295,461.68,320.699,451.113,320.699z"/>
<circle style="fill:#DE0029;" cx="61.296" cy="237.192" r="21.486"/>
<path style="fill:#FFFFFF;" d="M61.296,261c-13.128,0-23.809-10.681-23.809-23.809c0-13.128,10.681-23.809,23.809-23.809
	s23.809,10.681,23.809,23.809C85.105,250.319,74.424,261,61.296,261z M61.296,218.027c-10.567,0-19.163,8.596-19.163,19.163
	s8.596,19.163,19.163,19.163s19.163-8.596,19.163-19.163C80.459,226.624,71.863,218.027,61.296,218.027z"/>
<circle style="fill:#DE0029;" cx="61.296" cy="339.863" r="21.486"/>
<path style="fill:#FFFFFF;" d="M61.296,363.67c-13.128,0-23.809-10.681-23.809-23.809c0-13.128,10.681-23.809,23.809-23.809
	s23.809,10.681,23.809,23.809C85.105,352.99,74.424,363.67,61.296,363.67z M61.296,320.699c-10.567,0-19.163,8.596-19.163,19.163
	c0,10.567,8.596,19.163,19.163,19.163s19.163-8.596,19.163-19.163C80.459,329.295,71.863,320.699,61.296,320.699z"/>
<g>
</g>
<g>
</g>
<g>
</g>
<g>
</g>
<g>
</g>
<g>
</g>
<g>
</g>
<g>
</g>
<g>
</g>
<g>
</g>
<g>
</g>
<g>
</g>
<g>
</g>
<g>
</g>
<g>
</g>
</svg>
