<?xml version="1.0" encoding="iso-8859-1"?>
<!-- Generator: Adobe Illustrator 19.0.0, SVG Export Plug-In . SVG Version: 6.00 Build 0)  -->
<svg version="1.1" id="Capa_1" xmlns="http://www.w3.org/2000/svg" xmlns:xlink="http://www.w3.org/1999/xlink" x="0px" y="0px"
	 viewBox="0 0 512 512" style="enable-background:new 0 0 512 512;" xml:space="preserve">
<path style="fill:#1D2123;" d="M512,256c0,111.188-70.886,205.824-169.932,241.173C315.173,506.775,286.198,512,256,512
	c-8.683,0-17.262-0.428-25.715-1.275C100.979,497.831,0,388.702,0,256C0,114.615,114.615,0,256,0S512,114.615,512,256z"/>
<g>
	<path style="fill:#EBEBED;" d="M365.704,468.71c-6.656,10.282-14.796,19.801-23.636,28.463C315.173,506.775,286.198,512,256,512
		c-8.683,0-17.262-0.428-25.715-1.275c114.5-57.532,104.197-130.445,104.197-173.746c0-46.78,0-219.523,0-219.523h56.811
		c0,0,0,173.704,0,209.701C391.293,363.144,400.886,414.323,365.704,468.71z"/>
	<path style="fill:#EBEBED;" d="M281.706,167.843V117.46H114.962v50.383H224.14c0,0,0,143.315,0,168.108s9.597,54.384-55.184,87.974
		c-11.197,6.398-39.988,16.795-39.988,16.795s10.797,29.992,27.992,47.187c0,0,23.745-8.592,35.589-15.995
		c19.195-11.996,89.174-23.993,89.174-125.563c0-43.987,0-178.505,0-178.505L281.706,167.843L281.706,167.843z"/>
	<path style="fill:#EBEBED;" d="M131.166,32.248c-1.643,0-2.59-1.705-2.59-3.664c0-1.705,0.759-3.538,2.59-3.538h11.056
		c1.832,0,3.601,0.885,3.601,2.59v29.504c0,10.55-6.57,14.468-14.531,14.468c-8.781,0-15.099-4.739-15.099-12.572
		c0-3.159,1.326-3.98,4.105-3.98c2.148,0,3.917,0.568,4.106,2.59c0.126,3.159,1.39,6.759,6.508,6.759
		c4.297,0,6.697-2.337,6.697-7.265V32.248H131.166z"/>
	<path style="fill:#EBEBED;" d="M175.138,27.573c0-1.769,2.022-2.527,4.106-2.527c2.022,0,4.106,0.759,4.106,2.527V57.14
		c0,10.55-6.697,14.468-15.161,14.468c-8.529,0-15.163-3.917-15.163-14.468V27.573c0-1.769,2.021-2.527,4.106-2.527
		c2.021,0,4.106,0.759,4.106,2.527V57.14c0,4.928,2.59,7.265,6.95,7.265s6.949-2.337,6.949-7.265L175.138,27.573L175.138,27.573z"/>
	<path style="fill:#EBEBED;" d="M187.651,29.089c-0.064-0.253-0.126-0.506-0.126-0.632c0-2.022,2.97-3.412,5.181-3.412
		c1.39,0,2.464,0.442,2.779,1.643l9.666,34.242l9.604-34.242c0.316-1.201,1.39-1.643,2.779-1.643c2.211,0,5.181,1.453,5.181,3.412
		c0,0.189-0.064,0.379-0.126,0.632l-12.131,39.739c-0.568,1.895-2.906,2.779-5.307,2.779c-2.4,0-4.675-0.884-5.306-2.779
		L187.651,29.089z"/>
	<path style="fill:#EBEBED;" d="M235.288,44.884h9.604c1.643,0,2.59,1.58,2.59,3.285c0,1.453-0.821,3.159-2.59,3.159h-9.604v12.699
		h17.879c1.643,0,2.59,1.705,2.59,3.664c0,1.706-0.821,3.538-2.59,3.538h-22.491c-1.833,0-3.602-0.884-3.602-2.59V27.636
		c0-1.705,1.769-2.59,3.602-2.59h22.491c1.769,0,2.59,1.832,2.59,3.538c0,1.958-0.948,3.664-2.59,3.664h-17.879L235.288,44.884
		L235.288,44.884z"/>
	<path style="fill:#EBEBED;" d="M282.358,68.638l-13.584-25.397v25.397c0,1.705-2.085,2.59-4.106,2.59
		c-2.085,0-4.106-0.884-4.106-2.59V27.636c0-1.769,2.022-2.59,4.106-2.59c2.97,0,4.17,0.632,6.128,4.359l12.193,23.565V27.573
		c0-1.769,2.021-2.527,4.105-2.527c2.022,0,4.106,0.759,4.106,2.527v41.066c0,1.705-2.085,2.59-4.106,2.59
		C285.137,71.229,283.432,70.596,282.358,68.638z"/>
	<path style="fill:#EBEBED;" d="M325.068,25.045c1.769,0,2.59,1.895,2.59,3.664c0,1.958-0.948,3.727-2.59,3.727h-9.224v36.2
		c0,1.705-2.085,2.59-4.106,2.59c-2.085,0-4.106-0.884-4.106-2.59V32.438h-9.287c-1.643,0-2.59-1.706-2.59-3.727
		c0-1.769,0.821-3.664,2.59-3.664h26.724V25.045z"/>
	<path style="fill:#EBEBED;" d="M354.068,27.573c0-1.769,2.022-2.527,4.106-2.527c2.022,0,4.106,0.759,4.106,2.527V57.14
		c0,10.55-6.697,14.468-15.161,14.468c-8.529,0-15.162-3.917-15.162-14.468V27.573c0-1.769,2.021-2.527,4.106-2.527
		c2.021,0,4.106,0.759,4.106,2.527V57.14c0,4.928,2.59,7.265,6.95,7.265c4.359,0,6.949-2.337,6.949-7.265L354.068,27.573
		L354.068,27.573z"/>
	<path style="fill:#EBEBED;" d="M388.818,58.908c0-9.476-20.28-6.57-20.28-21.544c0-9.413,8.086-12.635,15.353-12.635
		c3.727,0,12.004,0.885,12.004,5.054c0,1.453-1.01,4.359-3.285,4.359c-1.959,0-3.412-2.401-8.719-2.401
		c-4.548,0-7.14,1.833-7.14,4.865c0,7.834,20.28,5.117,20.28,21.48c0,9.034-6.317,13.709-15.036,13.709
		c-8.277,0-14.594-4.17-14.594-7.834c0-1.769,1.644-4.422,3.602-4.422c2.59,0,4.297,4.865,10.741,4.865
		C385.533,64.405,388.818,62.699,388.818,58.908z"/>
</g>
<g>
</g>
<g>
</g>
<g>
</g>
<g>
</g>
<g>
</g>
<g>
</g>
<g>
</g>
<g>
</g>
<g>
</g>
<g>
</g>
<g>
</g>
<g>
</g>
<g>
</g>
<g>
</g>
<g>
</g>
</svg>
