<svg height="512pt" viewBox="0 0 512 512" width="512pt" xmlns="http://www.w3.org/2000/svg"><path d="m512 256c0 141.386719-114.613281 256-256 256s-256-114.613281-256-256 114.613281-256 256-256 256 114.613281 256 256zm0 0" fill="#ffd237"/><path d="m302.75 113-27.078125-26.960938-38.167969 38.167969-29.5-29.5-30.753906 2.792969-35.3125-5.726562-13.898438 13.898437 34.5 34.5-10.726562.726563-19.71875-9.71875-13.898438 13.898437 130.28125 130.28125-85.894531 85.890625-21.667969-21.664062-52.886718 52.886718 113.753906 113.753906c17.480469 3.769532 35.613281 5.773438 54.21875 5.773438 141.386719 0 256-114.613281 256-256 0-15.78125-1.4375-31.226562-4.171875-46.21875l-123.90625-123.910156-18.398437 18.402344-40.773438-8.273438zm0 0" fill="#ffb037"/><path d="m424 392.46875h-168v-59.0625h168l-26.253906 29.53125zm0 0" fill="#0a7d5a"/><path d="m114.253906 362.9375-26.253906-29.53125h168v59.0625h-168zm0 0" fill="#0da678"/><path d="m359.175781 153.726562c-29.125 17.65625-70.917969 15.878907-97.214843-4.128906l-5.960938-4.535156-39.375 234.660156h93.066406c40.949219-45.886718 64.433594-112.121094 64.433594-181.71875v-52.941406zm0 0" fill="#d5011d"/><path d="m250.039062 149.597656c-26.296874 20.007813-68.089843 21.785156-97.21875 4.128906l-14.945312-8.664062v52.941406c0 69.597656 23.484375 135.832032 64.429688 181.71875h53.695312v-234.660156zm0 0" fill="#ff0021"/><path d="m344.066406 214.570312v-19.683593h-88.066406l-9.84375 9.84375 9.84375 9.839843zm0 0" fill="#eff6f9"/><path d="m167.929688 194.886719h88.070312v19.6875h-88.070312zm0 0" fill="#fff"/><path d="m256 86h-19.6875v39.375h-21.382812c1.09375-3.082031 1.691406-6.394531 1.691406-9.84375 0-16.285156-13.246094-29.53125-29.527344-29.53125h-59.0625v19.6875h19.6875v19.6875h-29.53125v19.6875h137.8125l19.6875-9.84375zm-88.59375 39.375v-19.6875h19.6875c5.425781 0 9.84375 4.414062 9.84375 9.84375s-4.417969 9.84375-9.84375 9.84375zm0 0" fill="#41be99"/><path d="m364.28125 125.375v-19.6875h19.691406v-19.6875h-59.066406c-16.28125 0-29.527344 13.246094-29.527344 29.53125 0 3.449219.597656 6.761719 1.691406 9.84375h-21.382812v-39.375h-19.6875v59.0625h137.8125v-19.6875zm-49.21875-9.84375c0-5.429688 4.417969-9.84375 9.84375-9.84375h19.691406v19.6875h-19.691406c-5.425781 0-9.84375-4.414062-9.84375-9.84375zm0 0" fill="#0da678"/><path d="m352.097656 234.261719h-96.097656l-39.375 148.363281 81.25-19.6875c28.941406-33.921875 47.898438-79.34375 54.222656-128.675781zm0 0" fill="#eff6f9"/><path d="m159.902344 234.261719c6.320312 49.332031 25.277344 94.753906 54.222656 128.675781l22.1875 19.6875 19.6875-118.835938v-29.527343zm0 0" fill="#fff"/><path d="m256 293.320312-9.84375 49.929688h29.53125v-30.238281c10.871094 0 19.6875-8.816407 19.6875-19.691407v-39.375c-21.746094 0-39.375 17.628907-39.375 39.375zm0 0" fill="#d5011d"/><path d="m246.15625 253.945312c-5.4375 0-9.84375 4.410157-9.84375 9.84375v13.125c-16.308594 0-29.53125 13.222657-29.53125 29.53125 0 16.3125 13.222656 29.53125 29.53125 29.53125v46.648438h19.6875v-118.835938c0-5.433593-4.40625-9.84375-9.84375-9.84375zm0 0" fill="#ff0021"/><path d="m354.4375 362.9375h-98.4375l-19.6875 29.53125 19.6875 29.53125h98.4375zm0 0" fill="#0da678"/><path d="m157.5625 362.9375h98.4375v59.0625h-98.4375zm0 0" fill="#41be99"/><path d="m334.75 382.625h-78.75l-19.6875 9.84375 19.6875 9.84375h78.75zm0 0" fill="#41be99"/><path d="m177.25 382.625h78.75v19.6875h-78.75zm0 0" fill="#4bebbd"/></svg>