<svg height="512pt" viewBox="0 0 512 512" width="512pt" xmlns="http://www.w3.org/2000/svg"><path d="m512 256c0 141.386719-114.613281 256-256 256s-256-114.613281-256-256 114.613281-256 256-256 256 114.613281 256 256zm0 0" fill="#015e82"/><path d="m396.273438 151.9375-84.917969-84.917969-22.164063 22.167969-22.085937-22.082031-22.164063 22.164062-22.25-22.25-34.648437 34.648438 37.984375 37.984375-50.210938 50.210937-61.25-61.25-14.835937 14.835938 61.25 61.25-73.9375 73.9375 55.0625 55.0625-49.6875 49.6875 125.835937 125.839843c12.320313 1.820313 24.921875 2.773438 37.746094 2.773438 141.386719 0 256-114.613281 256-256 0-12.839844-.957031-25.453125-2.78125-37.785156l-89.613281-89.609375zm0 0" fill="#014059"/><path d="m307.679688 182.414062v50.210938l-73.828126 33.222656 22.148438-83.433594zm0 0" fill="#d5011d"/><path d="m256 182.414062v83.433594l-51.679688-33.222656v-50.210938zm0 0" fill="#ff0021"/><path d="m307.679688 232.625v69.820312l-51.679688 43.375-22.148438-56.597656 22.148438-56.597656zm0 0" fill="#ffb037"/><path d="m256 232.625v113.195312l-51.679688-43.375v-69.820312zm0 0" fill="#ffd237"/><path d="m278.148438 305.082031h-22.148438l-11.074219-25.152343 11.074219-25.15625h22.148438zm0 0" fill="#d5011d"/><path d="m111.296875 289.222656c-18.320313 0-33.222656-14.902344-33.222656-33.222656s14.902343-33.222656 33.222656-33.222656 33.222656 14.902344 33.222656 33.222656-14.902343 33.222656-33.222656 33.222656zm0 0" fill="#ffd237"/><path d="m400.703125 289.222656c-18.320313 0-33.222656-14.902344-33.222656-33.222656s14.902343-33.222656 33.222656-33.222656 33.222656 14.902344 33.222656 33.222656-14.902343 33.222656-33.222656 33.222656zm0 0" fill="#ffb037"/><path d="m92.425781 128.574219h22.148438v66.445312h-22.148438zm0 0" fill="#ffd237"/><path d="m397.433594 128.574219h22.148437v66.445312h-22.148437zm0 0" fill="#ffb037"/><path d="m244.925781 67h22.148438v21.722656h-22.148438zm0 0" fill="#ffd237"/><path d="m200.628906 67h22.148438v27.652344h-22.148438zm0 0" fill="#ffd237"/><path d="m289.222656 67h22.148438v27.652344h-22.148438zm0 0" fill="#ffb037"/><path d="m108.285156 177.429688c-.773437 1.453124-1.605468 2.902343-2.253906 4.46875-7.023438 16.953124 1.027344 36.386718 17.980469 43.40625 16.125 6.679687 34.460937-.296876 42.296875-15.5625 16.683594-32.5 50.640625-54.636719 89.691406-54.636719l22.148438-33.195313-22.148438-33.1875c-63.988281 0-119.582031 35.925782-147.714844 88.707032zm0 0" fill="#ff0021"/><path d="m405.96875 181.898438c-.648438-1.566407-1.480469-3.015626-2.253906-4.46875-28.132813-52.78125-83.726563-88.707032-147.714844-88.707032v66.382813c39.050781 0 73.007812 22.136719 89.691406 54.636719 7.835938 15.265624 26.171875 22.242187 42.296875 15.566406 16.953125-7.023438 25.003907-26.457032 17.980469-43.410156zm0 0" fill="#d5011d"/><path d="m416.199219 177.664062c-.738281-1.792968-1.5625-3.316406-2.289063-4.65625l-.421875-.789062c-31.09375-58.332031-91.441406-94.574219-157.488281-94.574219l-11.074219 11.074219 11.074219 11.078125c57.847656 0 110.703125 31.742187 137.941406 82.839844l.488282.90625c.515624.953125 1.003906 1.855469 1.308593 2.59375 2.261719 5.464843 2.261719 11.484375 0 16.953125-2.265625 5.464844-6.523437 9.722656-11.988281 11.984375-2.710938 1.125-5.550781 1.695312-8.441406 1.695312-8.367188-.003906-15.941406-4.632812-19.769532-12.085937-19.203124-37.414063-57.347656-60.652344-99.539062-60.652344l-11.074219 11.074219 11.074219 11.074219c33.847656 0 64.441406 18.628906 79.839844 48.621093 7.632812 14.871094 22.757812 24.113281 39.464844 24.113281 5.816406 0 11.511718-1.136718 16.921874-3.378906 10.929688-4.527344 19.445313-13.039062 23.972657-23.972656 4.527343-10.929688 4.527343-22.96875 0-33.898438zm0 0" fill="#ffb037"/><path d="m156.457031 204.683594c-3.824219 7.453125-11.398437 12.082031-19.761719 12.082031-2.894531 0-5.734374-.566406-8.449218-1.691406-5.464844-2.261719-9.722656-6.519531-11.984375-11.984375-2.265625-5.46875-2.265625-11.488282 0-16.953125.304687-.738281.792969-1.640625 1.308593-2.597657l.488282-.902343c27.234375-51.097657 80.09375-82.839844 137.941406-82.839844v-22.152344c-66.050781 0-126.394531 36.242188-157.488281 94.578125l-.421875.78125c-.726563 1.34375-1.550782 2.863282-2.292969 4.65625-4.527344 10.933594-4.527344 22.972656 0 33.902344 4.527344 10.933594 13.042969 19.445312 23.972656 23.976562 5.414063 2.238282 11.105469 3.375 16.921875 3.375 16.710938 0 31.832032-9.238281 39.46875-24.113281 15.394532-29.992187 45.988282-48.621093 79.835938-48.621093v-22.148438c-42.1875 0-80.332032 23.238281-99.539063 60.652344zm0 0" fill="#ffd237"/><path d="m92.425781 316.980469h22.148438v66.445312h-22.148438zm0 0" fill="#ffd237"/><path d="m397.433594 316.980469h22.148437v66.445312h-22.148437zm0 0" fill="#ffb037"/><path d="m244.925781 423.277344h22.148438v21.722656h-22.148438zm0 0" fill="#ffd237"/><path d="m200.628906 417.347656h22.148438v27.652344h-22.148438zm0 0" fill="#ffd237"/><path d="m289.222656 417.347656h22.148438v27.652344h-22.148438zm0 0" fill="#ffb037"/><path d="m108.285156 334.570312c-.773437-1.453124-1.605468-2.902343-2.253906-4.46875-7.023438-16.953124 1.027344-36.386718 17.980469-43.40625 16.125-6.679687 34.460937.296876 42.296875 15.5625 16.683594 32.5 50.640625 54.636719 89.691406 54.636719l22.148438 33.195313-22.148438 33.1875c-63.988281 0-119.582031-35.925782-147.714844-88.707032zm0 0" fill="#ff0021"/><path d="m405.96875 330.101562c-.648438 1.566407-1.480469 3.015626-2.253906 4.46875-28.136719 52.78125-83.730469 88.707032-147.714844 88.707032v-66.382813c39.050781 0 73.007812-22.136719 89.691406-54.636719 7.835938-15.265624 26.171875-22.242187 42.296875-15.566406 16.953125 7.023438 25.003907 26.457032 17.980469 43.410156zm0 0" fill="#d5011d"/><path d="m416.199219 334.335938c-.738281 1.792968-1.5625 3.316406-2.289063 4.65625l-.421875.789062c-31.09375 58.332031-91.441406 94.574219-157.488281 94.574219l-11.074219-11.074219 11.074219-11.078125c57.847656 0 110.703125-31.742187 137.941406-82.839844l.488282-.90625c.515624-.953125 1.003906-1.855469 1.308593-2.59375 2.261719-5.464843 2.261719-11.484375 0-16.953125-2.265625-5.464844-6.523437-9.722656-11.988281-11.984375-2.710938-1.125-5.550781-1.695312-8.441406-1.695312-8.367188.003906-15.941406 4.632812-19.769532 12.085937-19.203124 37.414063-57.347656 60.652344-99.539062 60.652344l-11.074219-11.074219 11.074219-11.074219c33.847656 0 64.441406-18.628906 79.839844-48.621093 7.632812-14.871094 22.757812-24.113281 39.464844-24.113281 5.816406 0 11.511718 1.136718 16.921874 3.378906 10.929688 4.527344 19.445313 13.039062 23.972657 23.972656 4.527343 10.929688 4.527343 22.96875 0 33.898438zm0 0" fill="#ffb037"/><path d="m156.457031 307.316406c-3.824219-7.453125-11.398437-12.082031-19.761719-12.082031-2.894531 0-5.734374.566406-8.449218 1.691406-5.464844 2.261719-9.722656 6.519531-11.984375 11.984375-2.265625 5.46875-2.265625 11.488282 0 16.953125.304687.738281.792969 1.640625 1.308593 2.597657l.488282.902343c27.234375 51.097657 80.09375 82.839844 137.941406 82.839844v22.148437c-66.050781 0-126.394531-36.238281-157.488281-94.574218l-.421875-.785156c-.726563-1.339844-1.550782-2.863282-2.292969-4.652344-4.527344-10.933594-4.527344-22.972656 0-33.90625 4.527344-10.929688 13.042969-19.445313 23.972656-23.972656 5.414063-2.242188 11.105469-3.378907 16.921875-3.378907 16.710938 0 31.832032 9.242188 39.46875 24.117188 15.394532 29.988281 45.988282 48.621093 79.835938 48.621093v22.148438c-42.1875 0-80.332032-23.238281-99.539063-60.652344zm0 0" fill="#ffd237"/><path d="m233.851562 254.773438h22.148438v50.308593h-22.148438zm0 0" fill="#ff0021"/></svg>