<?xml version="1.0" encoding="iso-8859-1"?>
<!-- Generator: Adobe Illustrator 19.0.0, SVG Export Plug-In . SVG Version: 6.00 Build 0)  -->
<svg version="1.1" id="Capa_1" xmlns="http://www.w3.org/2000/svg" xmlns:xlink="http://www.w3.org/1999/xlink" x="0px" y="0px"
	 viewBox="0 0 512 512" style="enable-background:new 0 0 512 512;" xml:space="preserve">
<path style="fill:#1B3466;" d="M512,256c0,72.819-30.407,138.543-79.224,185.166c-1.327,1.264-2.675,2.518-4.033,3.751
	c-1.379,1.285-2.79,2.539-4.2,3.762c-19.968,17.502-42.684,31.922-67.406,42.559c-2.445,1.066-4.911,2.079-7.398,3.062
	c-2.842,1.118-5.695,2.184-8.579,3.197C314.514,506.89,285.853,512,256,512s-58.514-5.11-85.159-14.503
	c-2.884-1.024-5.757-2.09-8.6-3.208c-2.476-0.972-4.932-1.985-7.377-3.051c-24.733-10.637-47.449-25.067-67.427-42.569
	c-1.411-1.223-2.8-2.476-4.18-3.751c-1.358-1.233-2.706-2.487-4.033-3.762C30.407,394.543,0,328.819,0,256
	C0,114.615,114.615,0,256,0S512,114.615,512,256z"/>
<path style="fill:#FCBD00;" d="M451.02,354.335c0,32.695-8.046,63.519-22.277,90.582c-1.379,1.285-2.79,2.539-4.2,3.762
	c-19.968,17.502-42.684,31.922-67.406,42.559c-2.445,1.066-4.911,2.079-7.398,3.062c-2.842,1.118-5.695,2.184-8.579,3.197
	C314.514,506.89,285.853,512,256,512s-58.514-5.11-85.159-14.503c-2.884-1.024-5.757-2.09-8.6-3.208
	c-2.476-0.972-4.932-1.985-7.377-3.051c-24.733-10.637-47.449-25.067-67.427-42.569c-1.411-1.223-2.8-2.476-4.18-3.751
	C69.026,417.855,60.98,387.03,60.98,354.335c0-107.708,87.312-195.02,195.02-195.02S451.02,246.627,451.02,354.335z"/>
<path style="fill:#143782;" d="M395.191,215.134c-37.177-37.177-86.612-57.657-139.191-57.657s-102.013,20.48-139.201,57.657
	c-37.177,37.188-57.657,86.622-57.657,139.201c0,30.605,6.938,60.144,20.083,86.821c1.327,1.275,2.675,2.529,4.033,3.762
	c1.379,1.275,2.769,2.529,4.18,3.751C71.754,420.76,62.81,388.577,62.81,354.336c0-106.527,86.664-193.191,193.191-193.191
	c106.517,0,193.191,86.664,193.191,193.191c0,34.241-8.955,66.424-24.649,94.344c1.411-1.223,2.821-2.476,4.2-3.762
	c1.358-1.233,2.706-2.487,4.033-3.751c13.134-26.676,20.072-56.226,20.072-86.831C452.848,301.756,432.368,252.322,395.191,215.134z
	"/>
<path style="fill:#FFFFFF;" d="M424.448,354.335c0,58.337-29.654,109.746-74.71,139.964c-2.842,1.118-5.695,2.184-8.579,3.197
	C314.514,506.89,285.853,512,256,512s-58.514-5.11-85.159-14.503c-2.884-1.024-5.757-2.09-8.6-3.208
	c-45.056-30.218-74.7-81.627-74.7-139.954c0-93.038,75.421-168.448,168.458-168.448
	C349.027,185.887,424.448,261.298,424.448,354.335z"/>
<path style="fill:#143782;" d="M392.796,436.426c-17.341,28.832-43.537,51.731-74.813,64.934L115.172,297.65l60.511-66.005
	l67.14,67.14l24.418,11.6L392.796,436.426z"/>
<path style="fill:#FCBD00;" d="M356.987,230.454c-6.308-5.145-13.019-9.824-20.079-13.981l-19.95,19.95l-21.809,21.818
	c-12.085-4.926-25.298-7.655-39.15-7.655c-13.853,0-27.065,2.719-39.151,7.646l-41.759-41.76
	c-7.059,4.147-13.771,8.826-20.079,13.981c-35.909,29.308-58.836,73.915-58.836,123.879c0,39.608,14.411,75.856,38.289,103.782
	l19.237-19.237c-18.998-22.963-30.416-52.427-30.416-84.545c0-42.483,19.96-80.297,51.016-104.588l20.683,20.683
	c-25.893,18.861-42.73,49.414-42.73,83.904c0,48.645,33.483,89.462,78.667,100.678v27.962h19.227v-25.067
	c1.941,0.1,3.891,0.165,5.85,0.165c34.28,0,64.668-16.618,83.547-42.236l-19.429-14.292c-14.503,19.658-37.823,32.412-64.118,32.412
	c-1.969,0-3.919-0.073-5.85-0.211v-26.305h30.672v-15.565h-30.672v-22.89h31.587v-13.276h-50.815v74.209
	c-31.687-10.502-54.54-40.378-54.54-75.583c0-27.843,14.292-52.344,35.937-66.573l43.683,43.683l43.683-43.683
	c8.853,5.823,16.48,13.358,22.395,22.148l20.023-13.459c-6.785-10.072-15.29-18.879-25.087-26.021l20.683-20.683
	c31.056,24.291,51.016,62.105,51.016,104.588c0,31.02-10.639,59.559-28.484,82.156l19.283,19.283
	c22.688-27.596,36.312-62.928,36.312-101.438C415.823,304.37,392.896,259.763,356.987,230.454z M255.998,297.394l-20.115-20.115
	c6.427-1.675,13.167-2.563,20.115-2.563c6.95,0,13.688,0.888,20.115,2.563L255.998,297.394z"/>
<path style="fill:#143782;" d="M252.146,484.973h-23.227v-28.41c-46.4-12.238-78.667-54.053-78.667-102.23
	c0-32.908,15.537-64.178,41.681-84.125l-17.788-17.788c-31.075,24.972-48.862,62.015-48.862,101.914
	c0,30.348,10.639,59.92,29.957,83.27l1.16,1.402l-22.052,22.053l-1.405-1.644c-25.001-29.238-38.77-66.558-38.77-105.082
	c0-48.812,21.713-94.528,59.572-125.428c6.392-5.223,13.232-9.986,20.33-14.156l1.334-0.783l41.92,41.921
	c12.321-4.844,25.323-7.299,38.67-7.299c13.328,0,26.331,2.458,38.669,7.308l41.921-41.93l1.334,0.785
	c7.1,4.181,13.939,8.943,20.328,14.154h0.001c37.858,30.9,59.571,76.617,59.571,125.429c0,37.394-13.058,73.869-36.768,102.708
	l-1.4,1.703l-22.099-22.1l1.103-1.396c18.353-23.24,28.054-51.222,28.054-80.917c0-39.898-17.787-76.941-48.862-101.914
	l-17.788,17.788c9.245,7.05,17.21,15.493,23.697,25.125l1.118,1.66l-23.344,15.691l-1.116-1.659
	c-5.492-8.16-12.378-15.112-20.486-20.686l-43.933,43.933l-43.934-43.933c-21.124,14.519-33.687,38.319-33.687,63.994
	c0,32.6,20.196,61.493,50.54,72.761v-73.387h54.815v17.276h-31.587v18.89h30.672v19.565h-30.672v22.421
	c1.295,0.063,2.584,0.095,3.851,0.095c24.542,0,47.91-11.813,62.509-31.599l1.186-1.607l22.65,16.662l-1.188,1.611
	c-19.865,26.956-51.699,43.049-85.157,43.049c-1.219,0-2.492-0.024-3.851-0.074L252.146,484.973L252.146,484.973z M232.919,480.973
	h15.227v-25.174l2.104,0.109c2.108,0.109,3.988,0.162,5.747,0.162c31.524,0,61.552-14.851,80.733-39.822l-16.212-11.925
	c-15.411,19.844-39.38,31.631-64.521,31.631c-1.966,0-3.982-0.072-5.993-0.216l-1.858-0.133v-30.167h30.672v-11.565h-30.672v-26.89
	h31.587v-9.276h-46.815v74.979l-2.629-0.871c-33.441-11.084-55.91-42.221-55.91-77.481c0-27.568,13.771-53.08,36.838-68.243
	l1.361-0.896l43.421,43.421l43.421-43.421l1.36,0.896c8.582,5.645,15.914,12.722,21.82,21.057l16.707-11.229
	c-6.458-9.196-14.347-17.221-23.472-23.873l-1.89-1.377l23.588-23.588l1.395,1.091c32.909,25.74,51.784,64.436,51.784,106.163
	c0,30.009-9.613,58.319-27.82,81.992l16.462,16.462c22.244-27.849,34.469-62.721,34.469-98.453
	c0-47.606-21.177-92.193-58.101-122.331l0,0c-5.832-4.758-12.05-9.132-18.501-13.016l-41.597,41.607l-1.23-0.501
	c-12.223-4.981-25.142-7.507-38.396-7.507c-13.273,0-26.192,2.523-38.396,7.498l-1.23,0.502l-41.599-41.601
	c-6.447,3.874-12.664,8.248-18.498,13.016c-36.925,30.138-58.102,74.725-58.102,122.33c0,36.85,12.916,72.567,36.415,100.828
	l16.418-16.418c-19.18-23.84-29.724-53.741-29.724-84.409c0-41.728,18.875-80.423,51.784-106.163l1.395-1.091l23.588,23.588
	l-1.89,1.377c-26.241,19.115-41.908,49.877-41.908,82.288c0,46.859,31.725,87.461,77.149,98.736l1.518,0.377v27.527H232.919z
	 M255.998,300.222L232,276.224l3.379-0.881c13.384-3.488,27.856-3.488,41.239,0l3.379,0.881L255.998,300.222z M239.833,278.4
	l16.165,16.165l16.165-16.165C261.591,276.162,250.405,276.162,239.833,278.4z"/>
<path style="fill:#DF002E;" d="M368.124,103.005c0,0-17.274-13.63-34.159-14.941l-20.474-7.973c0,0-27.41-20.576-50.136-9.589
	l-6.98,5.919l-6.98-5.919c-22.727-10.987-50.136,9.589-50.136,9.589l-20.474,7.973c-16.885,1.31-34.16,14.941-34.16,14.941
	l-9.385,4.807l0.458,32.389l18.007,2.327l7.63,5.57l95.04-17.34l95.04,17.34l7.63-5.57l18.007-2.327l0.458-32.389L368.124,103.005z"
	/>
<path style="fill:#143782;" d="M351.637,149.069l-95.262-17.381l-95.262,17.381l-7.757-5.663l-18.562-2.399l-0.478-33.751
	l9.813-5.026c1.393-1.088,17.903-13.722,34.448-15.068l20.233-7.88c2.14-1.582,28.49-20.478,50.982-9.606l0.194,0.126l6.387,5.417
	l6.581-5.543c22.498-10.876,48.842,8.023,50.982,9.606l20.234,7.88c16.545,1.347,33.055,13.981,34.448,15.068l9.813,5.026
	l-0.478,33.751l-18.561,2.399L351.637,149.069z M256.375,129.826l94.817,17.299l7.501-5.476l17.453-2.256l0.438-31.027l-9.028-4.644
	c-0.17-0.135-17.259-13.473-33.663-14.747l-0.262-0.06l-20.692-8.094c-0.067-0.051-6.894-5.132-16.368-8.811
	c-8.638-3.354-21.312-6.194-32.715-0.738l-7.483,6.346l-7.482-6.346c-5.013-2.4-10.685-3.408-16.858-2.998
	c-5.008,0.333-10.357,1.596-15.898,3.751c-9.466,3.682-16.26,8.743-16.328,8.794l-0.217,0.121l-20.598,8.023l-0.135,0.01
	c-16.405,1.274-33.493,14.612-33.663,14.747l-0.149,0.096l-8.878,4.547l0.439,31.027l17.453,2.256l7.501,5.476L256.375,129.826z"/>
<path style="fill:#FCBD00;" d="M381.446,120.643c3.08-1.475,5.219-4.615,5.219-8.254c0-4.077-2.681-7.538-6.372-8.72
	c1.486-1.628,2.401-3.786,2.401-6.159c0-4.311-2.999-7.927-7.018-8.893c0.559-1.183,0.881-2.499,0.881-3.892
	c0-5.049-4.107-9.155-9.155-9.155c-0.232,0-0.461,0.018-0.69,0.034c0.166-0.689,0.263-1.403,0.263-2.142
	c0-5.049-4.107-9.155-9.155-9.155c-1.226,0-2.395,0.247-3.464,0.685c0.026-0.28,0.043-0.563,0.043-0.85
	c0-5.049-4.107-9.155-9.155-9.155c-1.466,0-2.848,0.355-4.078,0.971c-1.236-3.597-4.644-6.191-8.654-6.191
	c-2.824,0-5.354,1.287-7.034,3.305c-1.592-1.337-3.641-2.146-5.879-2.146c-0.566,0-1.118,0.059-1.655,0.158
	c0.174-0.704,0.277-1.436,0.277-2.193c0-5.049-4.107-9.155-9.155-9.155c-1.187,0-2.319,0.234-3.36,0.648
	c-0.177-4.894-4.203-8.825-9.139-8.825c-1.807,0-3.488,0.533-4.909,1.44c-1.246-3.579-4.645-6.159-8.641-6.159
	c-2.192,0-4.206,0.776-5.784,2.066c-1.665-2.3-4.363-3.804-7.414-3.804c-1.484,0-2.883,0.363-4.124,0.993
	c-0.003-2.841-2.307-5.144-5.149-5.144c-0.077,0-0.153,0.008-0.229,0.011v-6.994h6.409v-6.87h-6.409V0.916h-3.938h-3.938v6.181
	h-6.409v6.867h6.409v6.993c-0.076-0.003-0.152-0.011-0.229-0.011c-2.842,0-5.146,2.302-5.149,5.144
	c-1.241-0.63-2.639-0.993-4.124-0.993c-3.05,0-5.749,1.505-7.414,3.804c-1.578-1.289-3.591-2.066-5.784-2.066
	c-3.998,0-7.396,2.58-8.641,6.159c-1.42-0.907-3.102-1.44-4.909-1.44c-4.936,0-8.963,3.93-9.139,8.825
	c-1.042-0.413-2.173-0.648-3.36-0.648c-5.048,0-9.155,4.107-9.155,9.155c0,0.758,0.102,1.489,0.277,2.193
	c-0.538-0.098-1.09-0.158-1.655-0.158c-2.237,0-4.286,0.809-5.879,2.146c-1.681-2.018-4.21-3.305-7.034-3.305
	c-4.009,0-7.418,2.596-8.654,6.191c-1.23-0.615-2.612-0.971-4.078-0.971c-5.048,0-9.155,4.107-9.155,9.155
	c0,0.286,0.017,0.569,0.043,0.85c-1.07-0.439-2.238-0.685-3.464-0.685c-5.048,0-9.155,4.107-9.155,9.155
	c0,0.739,0.097,1.453,0.263,2.142c-0.228-0.017-0.457-0.034-0.69-0.034c-5.048,0-9.155,4.107-9.155,9.155
	c0,1.393,0.322,2.709,0.881,3.892c-4.019,0.967-7.018,4.582-7.018,8.893c0,2.373,0.915,4.531,2.401,6.159
	c-3.691,1.182-6.372,4.642-6.372,8.72c0,3.638,2.138,6.778,5.219,8.254c-4.714,1.783-8.08,6.33-8.08,11.66
	c0,6.879,5.596,12.475,12.475,12.475c2.251,0,4.356-0.611,6.178-1.66c1.403,1.612,4.725,3.427,12.61,2.948
	c-2.042,5.283,7.407,9.138,7.407,9.138v0.009c-2.646,7.773,1.73,7.765,1.73,7.765l3.095,10.072h0.009
	c26.919-13.285,57.224-20.747,89.27-20.747h0.369h0.016h0.369c32.046,0,62.351,7.462,89.27,20.747h0.009l3.095-10.072
	c0,0,4.376,0.009,1.73-7.765V155.2c0,0,9.449-3.855,7.407-9.138c7.884,0.481,11.207-1.335,12.61-2.948
	c1.822,1.05,3.928,1.66,6.178,1.66c6.879,0,12.475-5.596,12.475-12.475C389.526,126.974,386.159,122.427,381.446,120.643z
	 M158.864,143.978c5.188-3.03,6.876-7.032,7.013-10.79c1.696-0.429,3.185-1.377,4.278-2.675c2.546,2.311,5.474,4.446,8.378,5.458
	C171.511,138.462,158.864,143.978,158.864,143.978z M181.479,128.184c-6.181,1.373-10.304-6.747-10.304-6.747
	c-1.369-2.652-4.13-4.469-7.322-4.469c-4.552,0-8.24,3.69-8.24,8.24c0,2.489,1.109,4.715,2.853,6.226
	c-3.487,7.84-9.24,8.305-12.435,7.852c1.352-1.994,2.143-4.398,2.143-6.983c0-2.16-0.558-4.189-1.529-5.961l0,0
	c0,0-2.019-8.688,3.703-26.314c5.723-17.625,27.504-26.537,27.504-26.537c0,2.304,0.862,4.407,2.273,6.018
	c-3.453,1.311-5.918,4.646-5.918,8.554c0,4.053,2.65,7.494,6.305,8.696c-0.426,1.133-0.671,2.354-0.671,3.636
	c0,0.216,0.019,0.428,0.032,0.642c-3.256,1.741-5.473,5.171-5.473,9.121c0,5.71,4.629,10.338,10.338,10.338
	c0.917,0,1.803-0.131,2.651-0.355C186.897,123.026,185.49,127.292,181.479,128.184z M189.213,132.482
	c4.355-5.579,4.645-14.598,4.645-14.598s5.129,7.917,11.724,10.334C200.05,129.445,194.589,130.865,189.213,132.482z
	 M216.424,126.065c3.126-2.547,5.325-6.278,6.673-9.127c0.684,0.184,1.401,0.292,2.144,0.292c0.995,0,1.945-0.185,2.827-0.508
	c2.098,2.265,4.941,5.024,7.788,6.835C229.296,124.121,222.816,124.964,216.424,126.065z M232.524,112.84
	c0.609-1.149,0.957-2.46,0.957-3.851c0-4.551-3.69-8.24-8.24-8.24s-8.24,3.69-8.24,8.24c0,1.688,0.509,3.255,1.379,4.562
	c-9.506,13.353-16.365,2.895-16.365,2.895c4.524-1.102,7.887-5.17,7.887-10.034c0-5.71-4.629-10.338-10.338-10.338
	c-0.751-1.628-1.923-3.013-3.361-4.051l0.032,0.006c0,0,4.281-26.846,18.891-36.863s34.268-9.385,34.268-9.385v31.291
	c0,2.962,1.861,5.485,4.475,6.478c-3.379,0.938-5.969,3.764-6.58,7.268c-0.017,0-0.033-0.003-0.05-0.003
	c-5.073,0-9.185,4.113-9.185,9.185c0,5.073,4.113,9.185,9.185,9.185c0.745,0,1.466-0.097,2.16-0.264
	C243.846,123.993,232.524,112.84,232.524,112.84z M256.752,122.69h-0.369h-0.016h-0.369c-3.121,0-6.221,0.085-9.313,0.207
	c5.082-4.102,9.627-11.54,9.689-11.642c0.063,0.102,4.607,7.54,9.689,11.642C262.974,122.774,259.873,122.69,256.752,122.69z
	 M276.895,123.556c2.846-1.811,5.688-4.569,7.788-6.835c0.883,0.323,1.833,0.508,2.827,0.508c0.743,0,1.46-0.108,2.144-0.292
	c1.348,2.849,3.546,6.58,6.673,9.127C289.934,124.964,283.455,124.121,276.895,123.556z M294.37,113.55
	c0.87-1.306,1.379-2.875,1.379-4.562c0-4.551-3.69-8.24-8.24-8.24c-4.552,0-8.24,3.69-8.24,8.24c0,1.392,0.348,2.701,0.957,3.851
	c0,0-11.323,11.152-16.876-3.919c0.694,0.167,1.415,0.264,2.16,0.264c5.073,0,9.185-4.113,9.185-9.185
	c0-5.073-4.113-9.185-9.185-9.185c-0.017,0-0.033,0.002-0.05,0.003c-0.61-3.506-3.201-6.33-6.58-7.268
	c2.614-0.994,4.475-3.515,4.475-6.478v-31.29c0,0,19.659-0.633,34.268,9.385c14.61,10.017,18.891,36.863,18.891,36.863l0.032-0.006
	c-1.439,1.038-2.609,2.423-3.361,4.051c-5.71,0-10.338,4.629-10.338,10.338c0,4.864,3.362,8.932,7.887,10.034
	C310.735,116.447,303.876,126.904,294.37,113.55z M307.168,128.217c6.595-2.417,11.724-10.334,11.724-10.334
	s0.288,9.02,4.645,14.598C318.161,130.865,312.7,129.445,307.168,128.217z M334.217,135.969c2.905-1.011,5.833-3.146,8.378-5.458
	c1.094,1.298,2.582,2.245,4.278,2.675c0.137,3.758,1.825,7.759,7.013,10.79C353.886,143.978,341.24,138.462,334.217,135.969z
	 M354.284,131.434c1.744-1.511,2.853-3.737,2.853-6.226c0-4.551-3.69-8.24-8.24-8.24c-3.191,0-5.952,1.817-7.322,4.469
	c0,0-4.123,8.12-10.304,6.747c-4.012-0.891-5.419-5.158-5.912-8.043c0.847,0.225,1.732,0.355,2.651,0.355
	c5.71,0,10.338-4.629,10.338-10.338c0-3.95-2.217-7.38-5.473-9.121c0.013-0.213,0.032-0.425,0.032-0.642
	c0-1.282-0.245-2.504-0.671-3.636c3.656-1.202,6.305-4.642,6.305-8.696c0-3.908-2.465-7.242-5.918-8.554
	c1.411-1.611,2.273-3.714,2.273-6.018c0,0,21.782,8.912,27.504,26.537s3.703,26.314,3.703,26.314l0,0
	c-0.971,1.772-1.529,3.801-1.529,5.961c0,2.585,0.791,4.988,2.143,6.983C363.524,139.739,357.771,139.274,354.284,131.434z"/>
<path style="fill:#143782;" d="M346.709,173.963h-0.89l-0.202-0.094c-27.767-13.704-57.665-20.652-88.864-20.652H256
	c-31.2,0-61.097,6.949-88.864,20.652l-0.191,0.094h-0.89l-0.208-0.647l-2.927-9.524c-0.624-0.164-1.397-0.552-1.967-1.345
	c-1.031-1.438-1.091-3.704-0.177-6.742c-2.16-1.024-7.984-4.216-7.468-8.667c-6.605,0.21-9.928-1.272-11.597-2.787
	c-1.866,0.947-3.929,1.444-6.009,1.444c-7.383,0-13.39-6.007-13.39-13.39c0-4.921,2.766-9.45,7.036-11.768
	c-2.581-1.877-4.174-4.912-4.174-8.146c0-3.957,2.283-7.476,5.797-9.118c-1.185-1.686-1.825-3.691-1.825-5.761
	c0-4.31,2.707-8.071,6.702-9.482c-0.375-1.066-0.565-2.172-0.565-3.304c0-5.415,4.296-9.845,9.658-10.063
	c-0.051-0.404-0.076-0.806-0.076-1.201c0-5.554,4.518-10.072,10.072-10.072c0.853,0,1.695,0.108,2.514,0.321
	c0.227-5.354,4.653-9.641,10.062-9.641c1.233,0,2.434,0.224,3.581,0.667c1.627-3.559,5.19-5.887,9.151-5.887
	c2.699,0,5.258,1.077,7.145,2.982c1.831-1.281,4.04-1.936,6.3-1.808c-0.046-0.382-0.069-0.762-0.069-1.136
	c0-5.554,4.518-10.072,10.072-10.072c0.864,0,1.721,0.113,2.559,0.335c0.747-4.861,4.905-8.514,9.941-8.514
	c1.55,0,3.071,0.36,4.455,1.049c1.652-3.49,5.183-5.768,9.095-5.768c2.001,0,3.964,0.605,5.619,1.72
	c1.906-2.181,4.676-3.459,7.579-3.459c1.155,0,2.278,0.195,3.356,0.582c0.56-2.488,2.654-4.403,5.231-4.695v-5.189h-6.409V6.182
	h6.409V0.001h9.708v6.181h6.41v8.698h-6.41v5.189c2.578,0.292,4.672,2.207,5.232,4.694c1.077-0.386,2.203-0.581,3.356-0.581
	c2.903,0,5.673,1.278,7.578,3.459c1.655-1.115,3.618-1.72,5.619-1.72c3.912,0,7.442,2.278,9.095,5.767
	c1.385-0.689,2.906-1.049,4.455-1.049c5.036,0,9.194,3.653,9.941,8.513c0.838-0.223,1.695-0.335,2.559-0.335
	c5.554,0,10.072,4.518,10.072,10.072c0,0.374-0.023,0.753-0.069,1.136c2.252-0.131,4.469,0.527,6.299,1.808
	c1.888-1.905,4.446-2.982,7.146-2.982c3.961,0,7.524,2.328,9.15,5.887c1.147-0.443,2.347-0.667,3.581-0.667
	c5.409,0,9.837,4.286,10.062,9.641c0.82-0.213,1.661-0.321,2.514-0.321c5.554,0,10.072,4.518,10.072,10.072
	c0,0.395-0.026,0.796-0.077,1.201c5.363,0.217,9.658,4.648,9.658,10.063c0,1.132-0.189,2.238-0.566,3.304
	c3.995,1.412,6.702,5.172,6.702,9.482c0,2.07-0.642,4.074-1.825,5.761c3.514,1.642,5.797,5.16,5.797,9.118
	c0,3.235-1.595,6.269-4.174,8.146c4.271,2.318,7.036,6.846,7.036,11.768c0,7.383-6.007,13.39-13.39,13.39
	c-2.08,0-4.143-0.497-6.009-1.444c-1.67,1.515-4.985,3.001-11.597,2.787c0.516,4.452-5.308,7.643-7.469,8.667
	c0.914,3.039,0.856,5.304-0.177,6.742c-0.567,0.792-1.342,1.181-1.965,1.345L346.709,173.963z M255.998,151.385h0.753
	c31.125,0,60.967,6.854,88.718,20.372l2.98-9.698l0.678,0.001c0.016-0.001,0.733-0.031,1.201-0.705
	c0.413-0.597,0.92-2.15-0.339-5.848l-0.049-0.143v-0.766l0.569-0.241c0.086-0.036,8.593-3.576,6.899-7.96l-0.514-1.33l1.423,0.087
	c7.902,0.481,10.827-1.444,11.864-2.635l0.494-0.568l0.653,0.376c1.747,1.007,3.726,1.539,5.722,1.539
	c6.374,0,11.56-5.186,11.56-11.56c0-4.768-3.009-9.109-7.489-10.804l-2.002-0.758l1.93-0.925c2.854-1.368,4.699-4.283,4.699-7.428
	c0-3.595-2.305-6.749-5.735-7.847l-1.359-0.435l0.961-1.054c1.394-1.528,2.162-3.496,2.162-5.542c0-3.817-2.598-7.107-6.317-8.003
	l-1.094-0.263l0.481-1.019c0.527-1.113,0.794-2.291,0.794-3.501c0-4.543-3.697-8.24-8.24-8.24c-0.2,0-0.396,0.016-0.591,0.03
	l-1.254,0.094l0.265-1.219c0.158-0.654,0.238-1.303,0.238-1.927c0-4.543-3.697-8.24-8.24-8.24c-1.07,0-2.119,0.208-3.117,0.616
	l-1.398,0.574l0.139-1.506c0.023-0.252,0.041-0.507,0.041-0.765c0-4.543-3.697-8.24-8.24-8.24c-1.276,0-2.511,0.295-3.669,0.874
	l-0.935,0.468l-0.34-0.99c-1.145-3.334-4.276-5.573-7.788-5.573c-2.448,0-4.756,1.085-6.331,2.975l-0.589,0.706l-0.703-0.591
	c-1.483-1.246-3.36-1.931-5.289-1.931c-0.48,0-0.968,0.046-1.49,0.142l-1.395,0.256l0.341-1.376
	c0.166-0.671,0.251-1.335,0.251-1.974c0-4.543-3.697-8.24-8.24-8.24c-1.03,0-2.048,0.196-3.024,0.583l-1.206,0.478l-0.046-1.296
	c-0.161-4.454-3.773-7.943-8.224-7.943c-1.561,0-3.089,0.448-4.416,1.297l-0.976,0.624l-0.381-1.095
	c-1.155-3.315-4.279-5.544-7.777-5.544c-1.889,0-3.738,0.66-5.205,1.859l-0.752,0.614l-0.569-0.787
	c-1.553-2.145-4.047-3.426-6.671-3.426c-1.293,0-2.542,0.301-3.71,0.893l-1.328,0.674l-0.002-1.489
	c-0.002-2.332-1.902-4.23-4.234-4.23l-1.144,0.05v-8.863h6.409V8.012H259.4v-6.18h-6.046v6.181h-6.409v5.035h6.409v8.863
	l-1.067-0.046c-0.003,0-0.005,0-0.008,0c-2.406,0-4.301,1.896-4.304,4.226l-0.002,1.489l-1.328-0.674
	c-1.169-0.592-2.417-0.893-3.71-0.893c-2.625,0-5.119,1.281-6.672,3.426l-0.569,0.787l-0.752-0.614
	c-1.467-1.2-3.315-1.859-5.205-1.859c-3.498,0-6.624,2.228-7.777,5.544l-0.381,1.094l-0.976-0.624
	c-1.328-0.848-2.856-1.297-4.416-1.297c-4.451,0-8.063,3.489-8.223,7.943l-0.047,1.296l-1.206-0.478
	c-0.976-0.388-1.994-0.583-3.024-0.583c-4.543,0-8.24,3.697-8.24,8.24c0,0.638,0.084,1.302,0.25,1.974l0.34,1.376l-1.394-0.256
	c-0.523-0.096-1.01-0.142-1.49-0.142c-1.928,0-3.807,0.685-5.289,1.931l-0.703,0.591l-0.588-0.706
	c-1.576-1.89-3.883-2.975-6.331-2.975c-3.513,0-6.642,2.24-7.788,5.573l-0.341,0.99l-0.936-0.468
	c-1.159-0.58-2.392-0.874-3.669-0.874c-4.543,0-8.24,3.697-8.24,8.24c0,0.258,0.016,0.513,0.04,0.765l0.139,1.506l-1.399-0.574
	c-0.997-0.41-2.046-0.616-3.117-0.616c-4.543,0-8.24,3.697-8.24,8.24c0,0.625,0.08,1.274,0.238,1.927l0.295,1.221l-1.253-0.093
	c-0.228-0.017-0.423-0.032-0.622-0.032c-4.543,0-8.24,3.697-8.24,8.24c0,1.21,0.266,2.388,0.793,3.501l0.481,1.018l-1.095,0.263
	c-3.719,0.895-6.316,4.186-6.316,8.003c0,2.046,0.768,4.014,2.162,5.542l0.961,1.054l-1.359,0.435
	c-3.43,1.097-5.735,4.251-5.735,7.847c0,3.145,1.844,6.06,4.699,7.428l1.93,0.925l-2.002,0.758
	c-4.479,1.694-7.489,6.035-7.489,10.804c0,6.374,5.186,11.56,11.56,11.56c1.996,0,3.974-0.532,5.722-1.539l0.653-0.376l0.495,0.568
	c1.037,1.191,3.949,3.117,11.864,2.635l1.424-0.087l-0.514,1.33c-1.694,4.384,6.814,7.924,6.899,7.96l0.568,0.233v0.766
	l-0.049,0.153c-1.258,3.698-0.753,5.251-0.34,5.848c0.468,0.675,1.185,0.704,1.215,0.705l0.654,0.021l0.209,0.626l2.78,9.05
	C195.031,158.237,224.874,151.385,255.998,151.385z M353.52,144.817c-0.126-0.055-12.699-5.531-19.61-7.984l-2.454-0.87l2.459-0.857
	c2.431-0.846,5.144-2.621,8.065-5.27l0.703-0.638l0.612,0.726c0.993,1.178,2.307,1.999,3.802,2.377l0.666,0.168l0.025,0.686
	c0.153,4.204,2.36,7.579,6.56,10.032L353.52,144.817z M336.68,135.898c3.761,1.419,8.41,3.341,11.981,4.847
	c-1.56-1.986-2.451-4.279-2.663-6.862c-1.303-0.433-2.477-1.144-3.461-2.095C340.495,133.57,338.535,134.945,336.68,135.898z
	 M159.23,144.817l-0.828-1.63c4.199-2.453,6.407-5.829,6.56-10.032l0.025-0.687l0.666-0.168c1.495-0.378,2.81-1.2,3.802-2.377
	l0.612-0.726l0.703,0.638c2.92,2.651,5.634,4.424,8.065,5.27l2.46,0.857l-2.454,0.87
	C171.928,139.286,159.355,144.761,159.23,144.817z M166.752,133.885c-0.211,2.582-1.103,4.874-2.663,6.862
	c3.571-1.507,8.22-3.428,11.982-4.847c-1.856-0.954-3.816-2.328-5.858-4.109C169.231,132.741,168.055,133.452,166.752,133.885z
	 M365.009,140.324c-3.506,0-8.418-1.452-11.561-8.518l-0.276-0.62l0.513-0.444c1.612-1.396,2.537-3.414,2.537-5.534
	c0-4.039-3.286-7.325-7.325-7.325c-2.748,0-5.242,1.522-6.509,3.974c-0.178,0.352-4.513,8.734-11.315,7.22
	c-3.427-0.762-5.777-3.88-6.616-8.781l-0.241-1.404l1.378,0.365c0.815,0.215,1.627,0.325,2.417,0.325
	c5.196,0,9.422-4.228,9.422-9.423c0-3.483-1.911-6.669-4.988-8.313l-0.517-0.276l0.046-0.764c0.009-0.136,0.019-0.271,0.019-0.409
	c0-1.12-0.206-2.235-0.611-3.313l-0.338-0.894l0.908-0.299c3.395-1.116,5.676-4.261,5.676-7.825c0-3.394-2.141-6.487-5.328-7.698
	l-1.231-0.468l0.867-0.992c1.32-1.508,2.047-3.43,2.047-5.416v-1.364l1.262,0.517c0.905,0.37,22.242,9.278,28.028,27.102
	c5.734,17.664,3.809,26.438,3.724,26.804l-0.089,0.232c-0.927,1.692-1.416,3.601-1.416,5.521c0,2.318,0.685,4.555,1.985,6.469
	l0.822,1.214l-1.452,0.206C366.302,140.27,365.681,140.324,365.009,140.324z M355.393,131.65c2.692,5.569,6.534,6.909,9.788,6.845
	c-0.998-1.904-1.519-4.017-1.519-6.191c0-2.181,0.543-4.347,1.574-6.276c0.194-1.045,1.516-9.639-3.703-25.716
	C356.764,85.624,340.268,77,335.721,74.865c-0.214,1.534-0.782,3.003-1.661,4.29c3.274,1.724,5.401,5.167,5.401,8.91
	c0,4.049-2.407,7.655-6.076,9.239c0.293,1.014,0.441,2.05,0.441,3.092c0,0.042-0.001,0.084-0.002,0.126
	c3.371,2.034,5.442,5.674,5.442,9.636c0,6.206-5.048,11.255-11.254,11.255c-0.486,0-0.977-0.034-1.471-0.102
	c0.654,2.6,2.032,5.335,4.931,5.98c5.43,1.205,9.25-6.193,9.288-6.267c1.584-3.068,4.701-4.971,8.139-4.971
	c5.048,0,9.155,4.107,9.155,9.155C358.053,127.628,357.092,129.938,355.393,131.65z M147.741,140.324
	c-0.672,0-1.293-0.053-1.839-0.131l-1.453-0.206l0.823-1.214c1.299-1.915,1.985-4.152,1.985-6.469c0-1.919-0.49-3.83-1.416-5.521
	l-0.089-0.232c-0.085-0.366-2.01-9.14,3.724-26.804c5.788-17.824,27.123-26.732,28.028-27.102l1.262-0.517v1.364
	c0,1.985,0.726,3.908,2.046,5.416l0.867,0.992l-1.232,0.468c-3.187,1.211-5.328,4.304-5.328,7.698c0,3.565,2.281,6.709,5.676,7.825
	l0.908,0.299l-0.336,0.894c-0.406,1.078-0.612,2.193-0.612,3.313c0,0.142,0.01,0.282,0.02,0.421l0.046,0.75l-0.517,0.277
	c-3.077,1.646-4.988,4.831-4.988,8.313c0,5.196,4.227,9.423,9.423,9.423c0.79,0,1.602-0.109,2.417-0.325l1.377-0.365l-0.24,1.404
	c-0.84,4.902-3.189,8.02-6.616,8.781l0,0c-6.797,1.513-11.138-6.868-11.318-7.225c-1.262-2.445-3.756-3.969-6.506-3.969
	c-4.039,0-7.325,3.286-7.325,7.325c0,2.121,0.925,4.138,2.537,5.534l0.513,0.444l-0.276,0.62
	C156.161,138.87,151.248,140.324,147.741,140.324z M147.57,138.495c3.233,0.057,7.095-1.275,9.787-6.845
	c-1.698-1.71-2.659-4.022-2.659-6.442c0-5.049,4.107-9.155,9.155-9.155c3.437,0,6.554,1.903,8.136,4.965
	c0.041,0.079,3.879,7.473,9.291,6.273l0,0c2.9-0.645,4.278-3.38,4.931-5.98c-0.494,0.068-0.985,0.102-1.471,0.102
	c-6.206,0-11.254-5.049-11.254-11.255c0-3.962,2.071-7.602,5.442-9.636c-0.001-0.042-0.002-0.084-0.002-0.126
	c0-1.043,0.148-2.079,0.441-3.092c-3.669-1.584-6.076-5.19-6.076-9.239c0-3.743,2.127-7.185,5.401-8.91
	c-0.88-1.287-1.448-2.755-1.661-4.29c-4.547,2.135-21.044,10.759-25.812,25.447c-5.217,16.069-3.899,24.663-3.704,25.716
	c1.03,1.93,1.574,4.096,1.574,6.276C149.089,134.477,148.568,136.59,147.57,138.495z M326.03,134.188l-2.757-0.83
	c-5.289-1.59-10.775-3.02-16.302-4.248l-3.052-0.678l2.935-1.075c6.236-2.285,11.22-9.895,11.27-9.971l1.587-2.45l0.096,2.918
	c0.003,0.087,0.335,8.793,4.451,14.064L326.03,134.188z M309.954,127.913c3.863,0.904,7.694,1.903,11.441,2.983
	c-2.039-3.633-2.866-7.874-3.198-10.497C316.533,122.523,313.581,125.833,309.954,127.913z M186.72,134.188l1.772-2.27
	c4.115-5.272,4.448-13.978,4.45-14.064l0.096-2.914l1.587,2.445c0.05,0.076,5.047,7.691,11.271,9.973l2.935,1.075l-3.052,0.678
	c-5.525,1.227-11.011,2.656-16.304,4.248L186.72,134.188z M194.554,120.398c-0.333,2.624-1.16,6.864-3.198,10.497
	c3.748-1.081,7.579-2.079,11.441-2.983C199.17,125.833,196.217,122.523,194.554,120.398z M299.609,127.559l-3.439-0.592
	c-6.411-1.104-12.923-1.946-19.354-2.499l-2.695-0.232l2.282-1.452c2.85-1.814,5.71-4.636,7.607-6.684l0.414-0.447l0.573,0.21
	c1.425,0.52,2.905,0.6,4.419,0.192l0.739-0.199l0.327,0.692c1.255,2.653,3.387,6.335,6.423,8.808L299.609,127.559z M279.443,122.87
	c4.7,0.457,9.43,1.063,14.123,1.81c-1.937-2.161-3.403-4.644-4.42-6.689c-1.424,0.265-2.83,0.184-4.194-0.217
	C283.472,119.343,281.522,121.255,279.443,122.87z M213.141,127.559l2.705-2.205c3.036-2.474,5.168-6.155,6.423-8.808l0.327-0.692
	l0.739,0.199c1.512,0.408,2.995,0.328,4.418-0.192l0.573-0.21l0.415,0.447c1.898,2.049,4.757,4.872,7.607,6.685l2.282,1.452
	l-2.696,0.232c-6.429,0.554-12.941,1.395-19.354,2.499L213.141,127.559z M223.604,117.991c-1.017,2.045-2.483,4.528-4.42,6.689
	c4.693-0.747,9.423-1.353,14.123-1.81c-2.078-1.614-4.028-3.527-5.509-5.097C226.434,118.174,225.026,118.256,223.604,117.991z
	 M268.793,123.921l-2.764-0.11c-3.551-0.14-6.498-0.206-9.277-0.206h-0.753c-2.777,0-5.726,0.066-9.277,0.206l-2.764,0.11
	l2.152-1.737c4.936-3.983,9.438-11.332,9.482-11.406l0.782-1.285l0.782,1.285c0.045,0.074,4.547,7.423,9.483,11.406L268.793,123.921
	z M256.375,112.956c-1.283,1.949-4.005,5.835-7.189,8.936c2.491-0.079,4.699-0.117,6.812-0.117h0.753
	c2.113,0,4.322,0.038,6.813,0.117C260.38,118.79,257.658,114.904,256.375,112.956z M208.725,121.257c-0.045,0-0.089,0-0.133-0.001
	c-4.496-0.077-7.225-4.133-7.34-4.305l-0.718-1.087l1.264-0.308c4.232-1.031,7.188-4.792,7.188-9.144
	c0-5.196-4.228-9.423-9.423-9.423h-0.585l-0.246-0.532c-0.554-1.2-2.443-3.121-3.123-3.761l-0.354-0.332l0.076-0.48
	c0.177-1.112,4.513-27.35,19.277-37.474c14.688-10.071,33.999-9.569,34.816-9.545l0.886,0.028V77.07c0,2.48,1.561,4.739,3.885,5.623
	l2.18,0.828l2.18-0.828c2.324-0.883,3.885-3.142,3.885-5.623V44.894l0.886-0.028c0.815-0.025,20.129-0.527,34.816,9.545
	c14.763,10.123,19.131,36.355,19.31,37.467l0.09,0.558l-0.458,0.33c-1.334,0.962-2.395,2.239-3.065,3.693l-0.246,0.532h-0.585
	c-5.196,0-9.423,4.228-9.423,9.423c0,4.353,2.956,8.113,7.188,9.144l0.699,0.17v0.719c0,0.645-2.255,3.473-5.291,4.444
	c-2.928,0.938-7.52,0.516-12.735-6.809l-0.366-0.514l0.35-0.525c0.802-1.203,1.226-2.605,1.226-4.053
	c0-4.039-3.286-7.325-7.325-7.325s-7.325,3.286-7.325,7.325c0,1.205,0.286,2.356,0.852,3.423l0.319,0.602l-0.486,0.479
	c-0.219,0.215-5.419,5.255-10.822,4.049c-3.252-0.727-5.794-3.52-7.557-8.304l-0.592-1.609l1.667,0.402
	c5.355,1.291,10.215-2.835,10.215-8.031c0-4.56-3.709-8.269-8.269-8.269h-0.77l-0.183-0.757c-0.543-3.126-2.868-5.695-5.921-6.544
	l-2.259-0.628l-2.26,0.628c-3.054,0.848-5.379,3.417-5.922,6.544l-0.133,0.759l-0.868-0.004c-4.512,0.002-8.221,3.711-8.221,8.271
	c0,5.195,4.861,9.325,10.214,8.031l1.668-0.402l-0.593,1.609c-1.763,4.784-4.305,7.577-7.557,8.304
	c-5.407,1.208-10.604-3.834-10.822-4.049l-0.486-0.479l0.319-0.603c0.565-1.066,0.852-2.217,0.852-3.422
	c0-4.039-3.286-7.325-7.325-7.325s-7.325,3.286-7.325,7.325c0,1.448,0.424,2.85,1.226,4.053l0.35,0.525l-0.366,0.514
	C215.736,118.844,212.237,121.257,208.725,121.257z M295.47,113.508c2.941,3.975,5.847,5.936,8.654,5.916
	c2.306-0.039,4.08-1.492,5.042-2.51c-4.323-1.643-7.235-5.781-7.235-10.503c0-6.013,4.739-10.94,10.679-11.24
	c0.716-1.355,1.719-2.563,2.938-3.54c-0.706-3.808-5.451-26.804-18.442-35.711c-12.448-8.536-28.872-9.199-32.836-9.23v30.38
	c0,2.532-1.247,4.887-3.24,6.344c2.552,1.318,4.463,3.695,5.174,6.514c5.27,0.377,9.405,4.75,9.405,10.072
	c0,5.802-4.941,10.513-10.803,10.075c1.464,3.258,3.355,5.166,5.634,5.678c3.601,0.811,7.358-2.023,8.664-3.136
	c-0.493-1.143-0.752-2.383-0.752-3.628c0-5.049,4.107-9.155,9.155-9.155s9.155,4.107,9.155,9.155
	C296.665,110.584,296.254,112.134,295.47,113.508z M203.584,116.916c0.962,1.017,2.736,2.47,5.042,2.51
	c2.813,0.026,5.714-1.942,8.654-5.916c-0.783-1.376-1.194-2.925-1.194-4.52c0-5.049,4.107-9.155,9.155-9.155
	c5.049,0,9.155,4.107,9.155,9.155c0,1.246-0.258,2.486-0.751,3.628c1.305,1.113,5.064,3.944,8.663,3.136
	c2.279-0.512,4.17-2.42,5.634-5.678c-5.868,0.436-10.803-4.273-10.803-10.075c0-5.336,4.159-9.72,9.406-10.077
	c0.713-2.817,2.624-5.192,5.174-6.509c-1.994-1.457-3.241-3.812-3.241-6.344v-30.38c-3.962,0.03-20.387,0.694-32.836,9.23
	c-13.081,8.969-17.77,32.2-18.423,35.786c0.685,0.675,2.12,2.155,2.899,3.464c5.949,0.292,10.699,5.221,10.699,11.241
	C210.818,111.134,207.905,115.273,203.584,116.916z"/>
<g>
	<circle style="fill:#FFFFFF;" cx="176.9" cy="160" r="4.578"/>
	<circle style="fill:#FFFFFF;" cx="228.6" cy="145.42" r="4.578"/>
	<circle style="fill:#FFFFFF;" cx="335.85" cy="160" r="4.578"/>
	<circle style="fill:#FFFFFF;" cx="284.15" cy="145.42" r="4.578"/>
</g>
<g>
	<path style="fill:#143782;" d="M162.285,156.03l-0.39-0.823l-0.917,0.004v-0.588l0.523-0.248
		c29.646-14.038,61.439-21.156,94.496-21.156h0.385v1.831h-0.385C223.213,135.05,191.683,142.109,162.285,156.03z"/>
	<path style="fill:#143782;" d="M176.9,165.494c-3.029,0-5.493-2.464-5.493-5.493c0-3.029,2.464-5.493,5.493-5.493
		c3.029,0,5.493,2.464,5.493,5.493C182.393,163.03,179.929,165.494,176.9,165.494z M176.9,156.338c-2.02,0-3.662,1.643-3.662,3.662
		c0,2.02,1.643,3.662,3.662,3.662c2.02,0,3.662-1.643,3.662-3.662C180.563,157.98,178.92,156.338,176.9,156.338z"/>
	<path style="fill:#143782;" d="M228.604,150.915c-3.029,0-5.493-2.464-5.493-5.493s2.464-5.493,5.493-5.493
		s5.493,2.464,5.493,5.493C234.097,148.451,231.633,150.915,228.604,150.915z M228.604,141.759c-2.02,0-3.662,1.643-3.662,3.662
		c0,2.02,1.643,3.662,3.662,3.662c2.02,0,3.662-1.643,3.662-3.662C232.266,143.402,230.623,141.759,228.604,141.759z"/>
	<polygon style="fill:#143782;" points="186.972,154.965 200.935,144.664 218.559,146.496 205.055,156.795 	"/>
</g>
<polygon style="fill:#DF002E;" points="166.142,161.374 170.492,166.638 164.769,170.987 159.962,166.181 "/>
<path style="fill:#143782;" d="M350.465,156.03c-29.398-13.921-60.928-20.979-93.713-20.979h-0.384v-1.831h0.384
	c33.059,0,64.852,7.118,94.496,21.156l0.523,0.248v0.58l-0.917,0.004L350.465,156.03z"/>
<g>
	<circle style="fill:#FFFFFF;" cx="191.55" cy="104.84" r="7.897"/>
	<circle style="fill:#FFFFFF;" cx="256.33" cy="97.8" r="7.897"/>
	<circle style="fill:#FFFFFF;" cx="135.7" cy="132.3" r="7.897"/>
	<circle style="fill:#FFFFFF;" cx="135.24" cy="112.39" r="4.578"/>
	<circle style="fill:#FFFFFF;" cx="139.21" cy="97.51" r="4.578"/>
	<circle style="fill:#FFFFFF;" cx="145.35" cy="84.73" r="4.578"/>
	<circle style="fill:#FFFFFF;" cx="154.93" cy="73.46" r="4.578"/>
	<circle style="fill:#FFFFFF;" cx="167.51" cy="64.14" r="4.578"/>
	<circle style="fill:#FFFFFF;" cx="180.24" cy="58.921" r="4.578"/>
	<circle style="fill:#FFFFFF;" cx="193.15" cy="60.08" r="4.578"/>
	<circle style="fill:#FFFFFF;" cx="187.01" cy="73.49" r="4.578"/>
	<circle style="fill:#FFFFFF;" cx="183.36" cy="88.06" r="4.578"/>
	<circle style="fill:#FFFFFF;" cx="203.69" cy="48.888" r="4.578"/>
	<circle style="fill:#FFFFFF;" cx="216.19" cy="40.71" r="4.578"/>
	<circle style="fill:#FFFFFF;" cx="229.74" cy="35.992" r="4.578"/>
	<circle style="fill:#FFFFFF;" cx="242.93" cy="34.25" r="4.578"/>
	<circle style="fill:#FFFFFF;" cx="256.37" cy="46.09" r="4.578"/>
	<circle style="fill:#FFFFFF;" cx="256.37" cy="61.61" r="4.578"/>
	<circle style="fill:#FFFFFF;" cx="256.37" cy="75.73" r="4.578"/>
	<circle style="fill:#FFFFFF;" cx="321.2" cy="104.84" r="7.897"/>
	<circle style="fill:#FFFFFF;" cx="256.42" cy="97.8" r="7.897"/>
	<circle style="fill:#FFFFFF;" cx="377.05" cy="132.3" r="7.897"/>
	<circle style="fill:#FFFFFF;" cx="377.51" cy="112.39" r="4.578"/>
	<circle style="fill:#FFFFFF;" cx="373.54" cy="97.51" r="4.578"/>
	<circle style="fill:#FFFFFF;" cx="367.4" cy="84.73" r="4.578"/>
	<circle style="fill:#FFFFFF;" cx="357.82" cy="73.46" r="4.578"/>
	<circle style="fill:#FFFFFF;" cx="345.24" cy="64.14" r="4.578"/>
	<circle style="fill:#FFFFFF;" cx="332.51" cy="58.921" r="4.578"/>
	<circle style="fill:#FFFFFF;" cx="319.6" cy="60.08" r="4.578"/>
	<circle style="fill:#FFFFFF;" cx="325.74" cy="73.49" r="4.578"/>
	<circle style="fill:#FFFFFF;" cx="329.39" cy="88.06" r="4.578"/>
	<circle style="fill:#FFFFFF;" cx="309.06" cy="48.888" r="4.578"/>
	<circle style="fill:#FFFFFF;" cx="296.56" cy="40.71" r="4.578"/>
	<circle style="fill:#FFFFFF;" cx="283.01" cy="35.992" r="4.578"/>
	<circle style="fill:#FFFFFF;" cx="269.82" cy="34.25" r="4.578"/>
</g>
<g>
	<path style="fill:#143782;" d="M191.55,113.648c-4.859,0-8.813-3.954-8.813-8.813c0-4.859,3.954-8.813,8.813-8.813
		s8.813,3.954,8.813,8.813C200.362,109.694,196.408,113.648,191.55,113.648z M191.55,97.855c-3.849,0-6.981,3.132-6.981,6.981
		s3.132,6.981,6.981,6.981s6.981-3.132,6.981-6.981S195.399,97.855,191.55,97.855z"/>
	<path style="fill:#143782;" d="M256.33,106.609c-4.859,0-8.813-3.954-8.813-8.813c0-4.859,3.954-8.813,8.813-8.813
		s8.813,3.954,8.813,8.813C265.143,102.655,261.189,106.609,256.33,106.609z M256.33,90.815c-3.849,0-6.981,3.132-6.981,6.981
		s3.132,6.981,6.981,6.981s6.982-3.132,6.982-6.981C263.312,93.947,260.18,90.815,256.33,90.815z"/>
	<path style="fill:#143782;" d="M135.699,141.117c-4.859,0-8.813-3.954-8.813-8.813s3.954-8.813,8.813-8.813
		c4.859,0,8.813,3.954,8.813,8.813C144.512,137.163,140.558,141.117,135.699,141.117z M135.699,125.322
		c-3.849,0-6.981,3.132-6.981,6.981s3.132,6.981,6.981,6.981s6.981-3.132,6.981-6.981
		C142.68,128.453,139.548,125.322,135.699,125.322z"/>
	<path style="fill:#143782;" d="M135.241,117.883c-3.029,0-5.493-2.464-5.493-5.493s2.464-5.493,5.493-5.493
		s5.493,2.464,5.493,5.493C140.734,115.418,138.27,117.883,135.241,117.883z M135.241,108.727c-2.02,0-3.662,1.643-3.662,3.662
		c0,2.02,1.643,3.662,3.662,3.662c2.02,0,3.662-1.643,3.662-3.662C138.904,110.37,137.261,108.727,135.241,108.727z"/>
	<path style="fill:#143782;" d="M139.212,103.005c-3.029,0-5.493-2.464-5.493-5.493c0-3.029,2.464-5.493,5.493-5.493
		s5.493,2.464,5.493,5.493C144.706,100.54,142.241,103.005,139.212,103.005z M139.212,93.849c-2.02,0-3.662,1.643-3.662,3.662
		s1.643,3.662,3.662,3.662s3.662-1.643,3.662-3.662C142.874,95.492,141.232,93.849,139.212,93.849z"/>
	<path style="fill:#143782;" d="M145.348,90.219c-3.029,0-5.493-2.464-5.493-5.493c0-3.029,2.464-5.493,5.493-5.493
		s5.493,2.464,5.493,5.493S148.378,90.219,145.348,90.219z M145.348,81.063c-2.02,0-3.662,1.643-3.662,3.662
		c0,2.02,1.643,3.662,3.662,3.662s3.662-1.643,3.662-3.662C149.011,82.706,147.368,81.063,145.348,81.063z"/>
	<path style="fill:#143782;" d="M154.93,78.956c-3.029,0-5.493-2.464-5.493-5.493s2.464-5.493,5.493-5.493s5.493,2.464,5.493,5.493
		C160.423,76.491,157.959,78.956,154.93,78.956z M154.93,69.799c-2.02,0-3.662,1.643-3.662,3.662s1.643,3.662,3.662,3.662
		s3.662-1.643,3.662-3.662S156.949,69.799,154.93,69.799z"/>
	<path style="fill:#143782;" d="M167.507,69.635c-3.029,0-5.493-2.464-5.493-5.493c0-3.029,2.464-5.493,5.493-5.493
		S173,61.113,173,64.142S170.536,69.635,167.507,69.635z M167.507,60.479c-2.02,0-3.662,1.643-3.662,3.662s1.643,3.662,3.662,3.662
		s3.662-1.643,3.662-3.662C171.169,62.122,169.526,60.479,167.507,60.479z"/>
	<path style="fill:#143782;" d="M180.239,64.414c-3.029,0-5.493-2.464-5.493-5.493s2.464-5.493,5.493-5.493
		c3.029,0,5.493,2.464,5.493,5.493S183.268,64.414,180.239,64.414z M180.239,55.258c-2.02,0-3.662,1.643-3.662,3.662
		c0,2.02,1.643,3.662,3.662,3.662c2.02,0,3.662-1.643,3.662-3.662S182.257,55.258,180.239,55.258z"/>
	<path style="fill:#143782;" d="M193.151,65.573c-3.029,0-5.493-2.464-5.493-5.493s2.464-5.493,5.493-5.493s5.493,2.464,5.493,5.493
		C198.645,63.109,196.181,65.573,193.151,65.573z M193.151,56.417c-2.02,0-3.662,1.643-3.662,3.662c0,2.02,1.643,3.662,3.662,3.662
		s3.662-1.643,3.662-3.662C196.814,58.06,195.17,56.417,193.151,56.417z"/>
	<path style="fill:#143782;" d="M187.009,78.986c-3.029,0-5.493-2.464-5.493-5.493c0-3.029,2.464-5.493,5.493-5.493
		c3.029,0,5.493,2.464,5.493,5.493C192.502,76.522,190.038,78.986,187.009,78.986z M187.009,69.829c-2.02,0-3.662,1.643-3.662,3.662
		c0,2.02,1.643,3.662,3.662,3.662c2.02,0,3.662-1.643,3.662-3.662C190.671,71.473,189.028,69.829,187.009,69.829z"/>
	<path style="fill:#143782;" d="M183.363,93.557c-3.029,0-5.493-2.464-5.493-5.493s2.464-5.493,5.493-5.493s5.493,2.464,5.493,5.493
		S186.392,93.557,183.363,93.557z M183.363,84.402c-2.02,0-3.662,1.643-3.662,3.662s1.643,3.662,3.662,3.662
		c2.02,0,3.662-1.643,3.662-3.662S185.383,84.402,183.363,84.402z"/>
	<path style="fill:#143782;" d="M203.686,54.381c-3.029,0-5.493-2.464-5.493-5.493s2.464-5.493,5.493-5.493
		c3.029,0,5.493,2.464,5.493,5.493S206.715,54.381,203.686,54.381z M203.686,45.225c-2.02,0-3.662,1.643-3.662,3.662
		c0,2.02,1.643,3.662,3.662,3.662c2.02,0,3.662-1.643,3.662-3.662C207.349,46.868,205.705,45.225,203.686,45.225z"/>
	<path style="fill:#143782;" d="M216.185,46.203c-3.029,0-5.493-2.464-5.493-5.493s2.464-5.493,5.493-5.493s5.493,2.464,5.493,5.493
		C221.679,43.739,219.215,46.203,216.185,46.203z M216.185,37.048c-2.02,0-3.662,1.643-3.662,3.662c0,2.02,1.643,3.662,3.662,3.662
		s3.662-1.643,3.662-3.662S218.205,37.048,216.185,37.048z"/>
	<path style="fill:#143782;" d="M229.736,41.486c-3.029,0-5.493-2.464-5.493-5.493s2.464-5.493,5.493-5.493s5.493,2.464,5.493,5.493
		S232.766,41.486,229.736,41.486z M229.736,32.329c-2.02,0-3.662,1.643-3.662,3.662s1.643,3.662,3.662,3.662
		c2.02,0,3.662-1.643,3.662-3.662C233.399,33.972,231.755,32.329,229.736,32.329z"/>
	<path style="fill:#143782;" d="M242.934,39.746c-3.029,0-5.493-2.464-5.493-5.493s2.464-5.493,5.493-5.493s5.493,2.464,5.493,5.493
		C248.427,37.282,245.963,39.746,242.934,39.746z M242.934,30.59c-2.02,0-3.662,1.643-3.662,3.662s1.643,3.662,3.662,3.662
		s3.662-1.644,3.662-3.662C246.596,32.233,244.953,30.59,242.934,30.59z"/>
	<path style="fill:#143782;" d="M256.375,51.58c-3.029,0-5.493-2.464-5.493-5.493s2.464-5.493,5.493-5.493s5.494,2.464,5.494,5.493
		S259.404,51.58,256.375,51.58z M256.375,42.425c-2.02,0-3.662,1.643-3.662,3.662c0,2.02,1.643,3.662,3.662,3.662
		c2.02,0,3.662-1.643,3.662-3.662S258.395,42.425,256.375,42.425z"/>
	<path style="fill:#143782;" d="M256.375,67.1c-3.029,0-5.493-2.464-5.493-5.493s2.464-5.493,5.493-5.493s5.494,2.464,5.494,5.493
		C261.869,64.636,259.404,67.1,256.375,67.1z M256.375,57.944c-2.02,0-3.662,1.643-3.662,3.662c0,2.02,1.643,3.662,3.662,3.662
		c2.02,0,3.662-1.643,3.662-3.662S258.395,57.944,256.375,57.944z"/>
	<path style="fill:#143782;" d="M256.375,81.223c-3.029,0-5.493-2.464-5.493-5.493s2.464-5.493,5.493-5.493s5.494,2.464,5.494,5.493
		C261.869,78.758,259.404,81.223,256.375,81.223z M256.375,72.067c-2.02,0-3.662,1.643-3.662,3.662c0,2.02,1.643,3.662,3.662,3.662
		c2.02,0,3.662-1.643,3.662-3.662C260.037,73.709,258.395,72.067,256.375,72.067z"/>
	<path style="fill:#143782;" d="M321.201,113.648c-4.86,0-8.813-3.954-8.813-8.813c0-4.859,3.953-8.813,8.813-8.813
		s8.813,3.954,8.813,8.813C330.013,109.694,326.06,113.648,321.201,113.648z M321.201,97.855c-3.849,0-6.981,3.132-6.981,6.981
		s3.133,6.981,6.981,6.981c3.849,0,6.981-3.132,6.981-6.981S325.05,97.855,321.201,97.855z"/>
	<path style="fill:#143782;" d="M256.42,106.609c-4.859,0-8.813-3.954-8.813-8.813c0-4.859,3.954-8.813,8.813-8.813
		s8.813,3.954,8.813,8.813C265.233,102.655,261.279,106.609,256.42,106.609z M256.42,90.815c-3.849,0-6.981,3.132-6.981,6.981
		s3.132,6.981,6.981,6.981s6.982-3.132,6.982-6.981C263.401,93.947,260.269,90.815,256.42,90.815z"/>
	<path style="fill:#143782;" d="M377.051,141.117c-4.86,0-8.813-3.954-8.813-8.813s3.953-8.813,8.813-8.813s8.813,3.954,8.813,8.813
		C385.864,137.163,381.911,141.117,377.051,141.117z M377.051,125.322c-3.849,0-6.981,3.132-6.981,6.981s3.133,6.981,6.981,6.981
		s6.981-3.132,6.981-6.981C384.032,128.453,380.901,125.322,377.051,125.322z"/>
	<path style="fill:#143782;" d="M377.509,117.883c-3.029,0-5.493-2.464-5.493-5.493s2.464-5.493,5.493-5.493
		s5.493,2.464,5.493,5.493C383.003,115.418,380.538,117.883,377.509,117.883z M377.509,108.727c-2.02,0-3.662,1.643-3.662,3.662
		c0,2.02,1.643,3.662,3.662,3.662s3.662-1.643,3.662-3.662C381.171,110.37,379.529,108.727,377.509,108.727z"/>
	<path style="fill:#143782;" d="M373.538,103.005c-3.029,0-5.493-2.464-5.493-5.493c0-3.029,2.464-5.493,5.493-5.493
		s5.493,2.464,5.493,5.493C379.031,100.54,376.568,103.005,373.538,103.005z M373.538,93.849c-2.02,0-3.662,1.643-3.662,3.662
		s1.643,3.662,3.662,3.662s3.662-1.643,3.662-3.662C377.201,95.492,375.558,93.849,373.538,93.849z"/>
	<path style="fill:#143782;" d="M367.402,90.219c-3.029,0-5.493-2.464-5.493-5.493c0-3.029,2.464-5.493,5.493-5.493
		s5.493,2.464,5.493,5.493C372.896,87.755,370.431,90.219,367.402,90.219z M367.402,81.063c-2.02,0-3.662,1.643-3.662,3.662
		c0,2.02,1.643,3.662,3.662,3.662s3.662-1.643,3.662-3.662S369.422,81.063,367.402,81.063z"/>
	<path style="fill:#143782;" d="M357.82,78.956c-3.029,0-5.493-2.464-5.493-5.493s2.464-5.493,5.493-5.493s5.493,2.464,5.493,5.493
		C363.314,76.491,360.85,78.956,357.82,78.956z M357.82,69.799c-2.02,0-3.662,1.643-3.662,3.662s1.643,3.662,3.662,3.662
		s3.662-1.643,3.662-3.662S359.841,69.799,357.82,69.799z"/>
	<path style="fill:#143782;" d="M345.244,69.635c-3.029,0-5.493-2.464-5.493-5.493c0-3.029,2.464-5.493,5.493-5.493
		s5.493,2.464,5.493,5.493S348.273,69.635,345.244,69.635z M345.244,60.479c-2.02,0-3.662,1.643-3.662,3.662
		s1.643,3.662,3.662,3.662s3.662-1.643,3.662-3.662C348.906,62.122,347.263,60.479,345.244,60.479z"/>
	<path style="fill:#143782;" d="M332.513,64.414c-3.029,0-5.493-2.464-5.493-5.493s2.464-5.493,5.493-5.493s5.493,2.464,5.493,5.493
		S335.542,64.414,332.513,64.414z M332.513,55.258c-2.02,0-3.662,1.643-3.662,3.662c0,2.02,1.643,3.662,3.662,3.662
		s3.662-1.643,3.662-3.662S334.532,55.258,332.513,55.258z"/>
	<path style="fill:#143782;" d="M319.6,65.573c-3.029,0-5.493-2.464-5.493-5.493s2.464-5.493,5.493-5.493s5.493,2.464,5.493,5.493
		C325.093,63.109,322.629,65.573,319.6,65.573z M319.6,56.417c-2.02,0-3.662,1.643-3.662,3.662c0,2.02,1.643,3.662,3.662,3.662
		c2.02,0,3.662-1.643,3.662-3.662C323.261,58.06,321.62,56.417,319.6,56.417z"/>
	<path style="fill:#143782;" d="M325.742,78.986c-3.029,0-5.493-2.464-5.493-5.493c0-3.029,2.464-5.493,5.493-5.493
		s5.493,2.464,5.493,5.493C331.236,76.522,328.771,78.986,325.742,78.986z M325.742,69.829c-2.02,0-3.662,1.643-3.662,3.662
		c0,2.02,1.643,3.662,3.662,3.662s3.662-1.643,3.662-3.662C329.404,71.473,327.762,69.829,325.742,69.829z"/>
	<path style="fill:#143782;" d="M329.387,93.557c-3.029,0-5.493-2.464-5.493-5.493s2.464-5.493,5.493-5.493s5.493,2.464,5.493,5.493
		S332.417,93.557,329.387,93.557z M329.387,84.402c-2.02,0-3.662,1.643-3.662,3.662s1.643,3.662,3.662,3.662
		c2.02,0,3.662-1.643,3.662-3.662S331.407,84.402,329.387,84.402z"/>
	<path style="fill:#143782;" d="M309.065,54.381c-3.029,0-5.493-2.464-5.493-5.493s2.464-5.493,5.493-5.493s5.493,2.464,5.493,5.493
		S312.094,54.381,309.065,54.381z M309.065,45.225c-2.02,0-3.662,1.643-3.662,3.662c0,2.02,1.643,3.662,3.662,3.662
		s3.662-1.643,3.662-3.662S311.085,45.225,309.065,45.225z"/>
	<path style="fill:#143782;" d="M296.565,46.203c-3.029,0-5.493-2.464-5.493-5.493s2.464-5.493,5.493-5.493s5.493,2.464,5.493,5.493
		S299.594,46.203,296.565,46.203z M296.565,37.048c-2.02,0-3.662,1.643-3.662,3.662c0,2.02,1.643,3.662,3.662,3.662
		s3.662-1.643,3.662-3.662S298.585,37.048,296.565,37.048z"/>
	<path style="fill:#143782;" d="M283.014,41.486c-3.029,0-5.493-2.464-5.493-5.493s2.464-5.493,5.493-5.493s5.493,2.464,5.493,5.493
		S286.044,41.486,283.014,41.486z M283.014,32.329c-2.02,0-3.662,1.643-3.662,3.662s1.643,3.662,3.662,3.662
		c2.02,0,3.662-1.643,3.662-3.662S285.034,32.329,283.014,32.329z"/>
	<path style="fill:#143782;" d="M269.817,39.746c-3.029,0-5.493-2.464-5.493-5.493s2.464-5.493,5.493-5.493
		c3.029,0,5.493,2.464,5.493,5.493C275.31,37.282,272.846,39.746,269.817,39.746z M269.817,30.59c-2.02,0-3.662,1.643-3.662,3.662
		s1.643,3.662,3.662,3.662s3.662-1.643,3.662-3.662C273.479,32.233,271.836,30.59,269.817,30.59z"/>
	<path style="fill:#143782;" d="M335.85,165.494c-3.029,0-5.493-2.464-5.493-5.493c0-3.029,2.464-5.493,5.493-5.493
		s5.493,2.464,5.493,5.493C341.343,163.03,338.879,165.494,335.85,165.494z M335.85,156.338c-2.02,0-3.662,1.643-3.662,3.662
		c0,2.02,1.643,3.662,3.662,3.662s3.662-1.643,3.662-3.662C339.512,157.98,337.87,156.338,335.85,156.338z"/>
	<path style="fill:#143782;" d="M284.147,150.915c-3.029,0-5.493-2.464-5.493-5.493s2.464-5.493,5.493-5.493
		s5.493,2.464,5.493,5.493C289.641,148.451,287.177,150.915,284.147,150.915z M284.147,141.759c-2.02,0-3.662,1.643-3.662,3.662
		c0,2.02,1.643,3.662,3.662,3.662s3.662-1.643,3.662-3.662C287.81,143.402,286.167,141.759,284.147,141.759z"/>
</g>
<polyline style="fill:#DF002E;" points="256.368,150.158 271.988,144.206 256.368,137.339 256.382,137.339 240.762,144.206 
	256.382,150.158 "/>
<g>
	<path style="fill:#143782;" d="M256.382,151.137l-18.033-6.871l18.033-7.928l18.016,7.928L256.382,151.137z M243.175,144.146
		l13.208,5.032l13.195-5.032l-13.195-5.807L243.175,144.146z"/>
	<polygon style="fill:#143782;" points="325.778,154.965 311.815,144.664 294.19,146.496 307.695,156.795 	"/>
</g>
<polygon style="fill:#DF002E;" points="346.608,161.374 342.258,166.638 347.981,170.987 352.788,166.181 "/>
<g>
	<path style="fill:#143782;" d="M164.686,172.199l-6.105-6.105l7.701-5.989l5.522,6.685L164.686,172.199z M161.343,166.266
		l3.508,3.509l4.327-3.288l-3.175-3.844L161.343,166.266z"/>
	<path style="fill:#143782;" d="M348.064,172.199l-7.118-5.409l5.523-6.685l7.7,5.989L348.064,172.199z M343.573,166.486
		l4.327,3.288l3.509-3.509l-4.66-3.624L343.573,166.486z"/>
	<path style="fill:#143782;" d="M256,184.048c-93.895,0-170.287,76.392-170.287,170.287c0,56.059,27.23,105.869,69.151,136.903
		c2.445,1.066,4.901,2.079,7.377,3.051c2.842,1.118,5.716,2.184,8.6,3.208c-48.744-29.1-81.46-82.39-81.46-143.161
		c0-91.878,74.742-166.619,166.619-166.619c91.867,0,166.619,74.742,166.619,166.619c0,60.771-32.716,114.061-81.46,143.161
		c2.884-1.014,5.736-2.079,8.579-3.197c2.487-0.982,4.953-1.996,7.398-3.062c41.921-31.033,69.141-80.844,69.141-136.903
		C426.277,260.441,349.895,184.048,256,184.048z"/>
</g>
<g>
</g>
<g>
</g>
<g>
</g>
<g>
</g>
<g>
</g>
<g>
</g>
<g>
</g>
<g>
</g>
<g>
</g>
<g>
</g>
<g>
</g>
<g>
</g>
<g>
</g>
<g>
</g>
<g>
</g>
</svg>
